<?xml version="1.0" encoding="UTF-8"?>
<svg version="1.1" xmlns="http://www.w3.org/2000/svg" width="100" height="100">
<path d="M0 0 C33 0 66 0 100 0 C100 33 100 66 100 100 C67 100 34 100 0 100 C0 67 0 34 0 0 Z " fill="#1DB0E0" transform="translate(0,0)"/>
<path d="M0 0 C33 0 66 0 100 0 C100 33 100 66 100 100 C67 100 34 100 0 100 C0 67 0 34 0 0 Z M31 6 C29.89011719 6.49306641 29.89011719 6.49306641 28.7578125 6.99609375 C16.04287133 13.35356434 8.60853776 23.43876763 3.0625 36.1484375 C-0.72968783 48.20970157 1.93624786 61.98830213 7.5078125 72.97265625 C14.3455743 84.53324423 24.97614917 92.78815341 37.95410156 96.56933594 C51.29989577 99.37864154 65.21353008 96.64476995 76.8125 89.8125 C85.43341932 83.91463671 91.05537491 76.62249454 95 67 C95.3196875 66.23171875 95.639375 65.4634375 95.96875 64.671875 C100.05251471 53.25245886 99.06123756 40.90112706 94 30 C86.96979569 16.44955438 77.09833022 9.5607444 63.21484375 3.85546875 C59.00883133 2.73625038 55.08461148 2.65798666 50.75 2.6875 C49.9038916 2.69241455 49.0577832 2.6973291 48.18603516 2.70239258 C42.03837436 2.81772776 36.65023921 3.42507549 31 6 Z " fill="#FEFEFB" transform="translate(0,0)"/>
<path d="M0 0 C0.99 0 1.98 0 3 0 C3.495 3.96 3.495 3.96 4 8 C6.97 8 9.94 8 13 8 C12.505 6.515 12.505 6.515 12 5 C12.4375 2.3125 12.4375 2.3125 13 0 C13.66 0 14.32 0 15 0 C15 2.64 15 5.28 15 8 C16.4606285 5.35261084 17 4.10551666 17 1 C17.66 1 18.32 1 19 1 C18.67 3.97 18.34 6.94 18 10 C18.969375 10.20625 19.93875 10.4125 20.9375 10.625 C25.91386101 12.01185471 29.85495642 15.01105701 34 18 C34.33 17.34 34.66 16.68 35 16 C38 14 38 14 41 14 C40.34 14.99 39.68 15.98 39 17 C38.34 17 37.68 17 37 17 C37 17.66 37 18.32 37 19 C40.0745356 18.2236068 40.0745356 18.2236068 42 16 C42 19 42 19 40.5 20.6875 C40.005 21.120625 39.51 21.55375 39 22 C39.99 21.67 40.98 21.34 42 21 C42.33 20.34 42.66 19.68 43 19 C43.66 19 44.32 19 45 19 C44.6875 20.9375 44.6875 20.9375 44 23 C42.515 23.495 42.515 23.495 41 24 C40.10267475 27.05090586 39.86325711 28.62505982 40.96875 31.65625 C42.21556335 35.69894784 42.22356691 39.18211525 42.125 43.375 C42.11597656 44.11105469 42.10695313 44.84710938 42.09765625 45.60546875 C42.07430144 47.4037888 42.03843836 49.20193911 42 51 C41.01 51 40.02 51 39 51 C39.495 46.05 39.495 46.05 40 41 C39.01 41 38.02 41 37 41 C36.67 43.64 36.34 46.28 36 49 C35.67 49 35.34 49 35 49 C34.67 45.7 34.34 42.4 34 39 C34.061875 40.134375 34.12375 41.26875 34.1875 42.4375 C34.21380222 47.33847991 32.76012394 51.473967 31 56 C28.12775803 53.12775803 28.27787671 49.87564892 28 46 C28 44.68 28 43.36 28 42 C26.58774074 41.32404685 25.16997095 40.65959941 23.75 40 C22.96109375 39.62875 22.1721875 39.2575 21.359375 38.875 C18.7943343 37.76818748 18.7943343 37.76818748 15 38 C15 37.01 15 36.02 15 35 C15.66 35 16.32 35 17 35 C17 34.34 17 33.68 17 33 C16.01 33 15.02 33 14 33 C14 32.01 14 31.02 14 30 C13.05125 30.66 12.1025 31.32 11.125 32 C8 34 8 34 6 34 C6 35.32 6 36.64 6 38 C6.66 38 7.32 38 8 38 C7.67 38.99 7.34 39.98 7 41 C5.68 41 4.36 41 3 41 C2.96261719 41.56847656 2.92523438 42.13695312 2.88671875 42.72265625 C2.43021378 48.08435193 1.36510918 52.1669508 -1 57 C-2.65 56.34 -4.3 55.68 -6 55 C-6.08089542 52.22858283 -6.14044062 49.45952181 -6.1875 46.6875 C-6.21263672 45.90181641 -6.23777344 45.11613281 -6.26367188 44.30664062 C-6.27333984 43.54931641 -6.28300781 42.79199219 -6.29296875 42.01171875 C-6.3086792 41.31522217 -6.32438965 40.61872559 -6.34057617 39.90112305 C-5.90238443 37.45510217 -4.86562642 36.57297914 -3 35 C-3.66 35 -4.32 35 -5 35 C-6.625 33.5 -6.625 33.5 -8 32 C-8.66 32.99 -9.32 33.98 -10 35 C-10.99 35.495 -10.99 35.495 -12 36 C-11.01 36.66 -10.02 37.32 -9 38 C-8.69720914 40.92104126 -8.58189159 43.58299784 -8.625 46.5 C-8.61339844 47.28503906 -8.60179688 48.07007813 -8.58984375 48.87890625 C-8.6015625 51.15625 -8.6015625 51.15625 -9 55 C-9.99 55.66 -10.98 56.32 -12 57 C-11.67 57.66 -11.34 58.32 -11 59 C-11.99 59.495 -11.99 59.495 -13 60 C-6.03489643 66.42932637 0.64969617 69.67904809 10.26953125 69.33984375 C14.41135655 68.8243376 18.15631231 67.5944186 22 66 C22.33 66.66 22.66 67.32 23 68 C22.34 68 21.68 68 21 68 C21 68.66 21 69.32 21 70 C20.34 70.66 19.68 71.32 19 72 C21.76276177 71.47731534 24.3260876 70.89130413 27 70 C27 69.34 27 68.68 27 68 C27.66 68 28.32 68 29 68 C29.495 66.02 29.495 66.02 30 64 C30 64.99 30 65.98 30 67 C30.99 67.495 30.99 67.495 32 68 C24.39517566 75.39928855 15.45809164 77.69134874 4.99267578 77.60864258 C-4.93489191 77.12065335 -12.78110345 72.27466719 -19.3828125 65.0703125 C-25.42614248 57.33368233 -28.08926007 47.75528502 -27 38 C-26.02808796 33.86937383 -24.90214093 29.80428185 -23 26 C-26.465 24.02 -26.465 24.02 -30 22 C-29.34 21.34 -28.68 20.68 -28 20 C-26.68 20.66 -25.36 21.32 -24 22 C-24.95865509 19.66924071 -24.95865509 19.66924071 -28 18 C-26.68 17.67 -25.36 17.34 -24 17 C-23.67 17.66 -23.34 18.32 -23 19 C-21.15536461 19.90806116 -21.15536461 19.90806116 -19 20 C-17.16990964 18.92007448 -17.16990964 18.92007448 -15.5625 17.25 C-8.78924419 11 -8.78924419 11 -5 11 C-5.25561323 8.6568787 -5.59270772 6.32156597 -6 4 C-6.66 3.67 -7.32 3.34 -8 3 C-7.01 2.67 -6.02 2.34 -5 2 C-5 3.65 -5 5.3 -5 7 C-4.34 7 -3.68 7 -3 7 C-3.33 5.02 -3.66 3.04 -4 1 C-3.01 1 -2.02 1 -1 1 C-0.67 2.65 -0.34 4.3 0 6 C0.66 4.68 1.32 3.36 2 2 C1.34 2 0.68 2 0 2 C0 1.34 0 0.68 0 0 Z " fill="#3AB9D5" transform="translate(42,7)"/>
<path d="M0 0 C0 0.66 0 1.32 0 2 C0.66 2 1.32 2 2 2 C2 3.65 2 5.3 2 7 C2.33 5.02 2.66 3.04 3 1 C3.99 1.33 4.98 1.66 6 2 C5.67 3.65 5.34 5.3 5 7 C5.66 7.33 6.32 7.66 7 8 C7 5.36 7 2.72 7 0 C16.31787858 -0.89594986 24.36205434 2.7956635 31.8125 8.25 C39.49290608 14.69431902 46.92143018 24.02134889 48.3046875 34.25390625 C48.3125 36.1875 48.3125 36.1875 48 39 C47.34 38.01 46.68 37.02 46 36 C44.35 36.66 42.7 37.32 41 38 C42.65 38.33 44.3 38.66 46 39 C45.34 39.99 44.68 40.98 44 42 C44.66 42.33 45.32 42.66 46 43 C46 43.66 46 44.32 46 45 C44.35 45 42.7 45 41 45 C42.98 45.33 44.96 45.66 47 46 C47.33 44.35 47.66 42.7 48 41 C48.33 41 48.66 41 49 41 C49.05416188 42.60379341 49.09286638 44.20811406 49.125 45.8125 C49.14820312 46.70582031 49.17140625 47.59914062 49.1953125 48.51953125 C49 51 49 51 47 54 C47 52.02 47 50.04 47 48 C45.02 48.33 43.04 48.66 41 49 C42.65 49.66 44.3 50.32 46 51 C45.505 51.99 45.505 51.99 45 53 C44.01 53 43.02 53 42 53 C42.99 53.99 43.98 54.98 45 56 C42.33333333 56 39.66666667 56 37 56 C37.01047363 55.44127197 37.02094727 54.88254395 37.03173828 54.30688477 C37.07383379 51.7254707 37.09949343 49.14412924 37.125 46.5625 C37.15013672 45.24475586 37.15013672 45.24475586 37.17578125 43.90039062 C37.21489177 38.60091537 36.73824724 33.98482472 35.23779297 28.89038086 C35 27 35 27 37 24 C37.99 23.67 38.98 23.34 40 23 C40.495 21.515 40.495 21.515 41 20 C40.34 20 39.68 20 39 20 C38.505 21.485 38.505 21.485 38 23 C35.9375 23.6875 35.9375 23.6875 34 24 C35 21 35 21 36 20 C35.01 20 34.02 20 33 20 C33 18 33 18 34.5 16.375 C34.995 15.92125 35.49 15.4675 36 15 C35.34 15.66 34.68 16.32 34 17 C33.01 17 32.02 17 31 17 C30.505 18.485 30.505 18.485 30 20 C29.26394531 19.51789062 28.52789062 19.03578125 27.76953125 18.5390625 C26.79371094 17.90742188 25.81789063 17.27578125 24.8125 16.625 C23.84957031 15.99851562 22.88664062 15.37203125 21.89453125 14.7265625 C19.30196064 13.18011688 16.83146884 12.02491925 14 11 C14.33 8.03 14.66 5.06 15 2 C12.7018576 5.8509288 12.7018576 5.8509288 13 10 C12.01 9.67 11.02 9.34 10 9 C10.33 6.36 10.66 3.72 11 1 C10.34 1 9.68 1 9 1 C9.495 2.485 9.495 2.485 10 4 C9.5625 6.6875 9.5625 6.6875 9 9 C6.03 9 3.06 9 0 9 C-1.35439668 6.29120665 -1.06501451 3.99066732 -1 1 C-1.99 1 -2.98 1 -4 1 C-4 1.66 -4 2.32 -4 3 C-3.34 3 -2.68 3 -2 3 C-2.33 4.65 -2.66 6.3 -3 8 C-3.66 7.67 -4.32 7.34 -5 7 C-5 5.35 -5 3.7 -5 2 C-5.99 2 -6.98 2 -8 2 C-7.505 4.97 -7.505 4.97 -7 8 C-7.66 8 -8.32 8 -9 8 C-9 6.35 -9 4.7 -9 3 C-9.99 3.495 -9.99 3.495 -11 4 C-10.67 4.763125 -10.34 5.52625 -10 6.3125 C-9 9 -9 9 -9 12 C-11.265625 13.71875 -11.265625 13.71875 -14.25 15.5 C-17.62947006 17.53841051 -20.88770359 19.56944471 -24 22 C-25.32 21.34 -26.64 20.68 -28 20 C-28 19.34 -28 18.68 -28 18 C-28.99 18.33 -29.98 18.66 -31 19 C-30.01 19.66 -29.02 20.32 -28 21 C-28 21.66 -28 22.32 -28 23 C-26.68 23.33 -25.36 23.66 -24 24 C-24.66 24.33 -25.32 24.66 -26 25 C-28.625 24.0625 -28.625 24.0625 -31 23 C-28.525 24.98 -28.525 24.98 -26 27 C-26.474375 28.051875 -26.94875 29.10375 -27.4375 30.1875 C-31.38165513 39.50835717 -30.62582867 48.28346048 -27.44140625 57.78125 C-22.90886829 67.90268979 -14.9330557 72.86542859 -5 77 C-5.33 79.97 -5.66 82.94 -6 86 C-4.68 86.66 -3.36 87.32 -2 88 C-3.98 88 -5.96 88 -8 88 C-9.46726798 84.18510326 -8.43336419 81.70988378 -7 78 C-7.66 78 -8.32 78 -9 78 C-9.12375 78.61875 -9.2475 79.2375 -9.375 79.875 C-10 82 -10 82 -12 84 C-13.2077558 80.37673261 -12.54311128 79.35853631 -11 76 C-11.66 76 -12.32 76 -13 76 C-13.33 77.32 -13.66 78.64 -14 80 C-14.99 80 -15.98 80 -17 80 C-17 79.34 -17 78.68 -17 78 C-17.66 78 -18.32 78 -19 78 C-18.0022242 80.99332739 -17.2477975 81.94766315 -15 84 C-18.26954202 83.43628586 -19.82575883 82.50037734 -22 80 C-21.34 80 -20.68 80 -20 80 C-20.33 79.01 -20.66 78.02 -21 77 C-19.515 76.505 -19.515 76.505 -18 76 C-18.495 75.01 -18.495 75.01 -19 74 C-20.32 74.99 -21.64 75.98 -23 77 C-22.835 76.360625 -22.67 75.72125 -22.5 75.0625 C-21.96073333 73.19173179 -21.96073333 73.19173179 -22 72 C-22.86625 72.7734375 -22.86625 72.7734375 -23.75 73.5625 C-26 75 -26 75 -27.9140625 74.88671875 C-30.84044532 73.64273205 -31.8647467 71.8709939 -33.625 69.25 C-34.21539062 68.38890625 -34.80578125 67.5278125 -35.4140625 66.640625 C-37.32150764 63.46468187 -39 60.57179779 -39 56.8125 C-38 55 -38 55 -34.9375 53.75 C-33.968125 53.5025 -32.99875 53.255 -32 53 C-33.65 52.67 -35.3 52.34 -37 52 C-37 51.34 -37 50.68 -37 50 C-35.02 49.505 -35.02 49.505 -33 49 C-34.98 49 -36.96 49 -39 49 C-39 50.65 -39 52.3 -39 54 C-41.45610827 51.54389173 -41.30554507 50.05772988 -41.38037109 46.69384766 C-41.36026176 38.71409916 -40.61295092 32.27106373 -37 25 C-36.5875 24.14921875 -36.175 23.2984375 -35.75 22.421875 C-30.00825469 11.78659676 -21.2878277 5.0390949 -10 1 C-6.59276396 0.00046028 -3.55456941 -0.08078567 0 0 Z " fill="#AEE07F" transform="translate(46,6)"/>
<path d="M0 0 C0.33 0 0.66 0 1 0 C1.21914063 0.81082031 1.43828125 1.62164062 1.6640625 2.45703125 C6.11393337 17.99540148 12.39589022 28.03301377 26.22265625 36.4921875 C37.55769634 42.64595047 51.18370092 43.91903724 63.5625 40.4375 C78.37214552 35.32209104 87.52459724 27.27023293 94.87109375 13.578125 C95.98421242 11.03605469 96.57220864 8.73393097 97 6 C97.99 5.67 98.98 5.34 100 5 C100 17.87 100 30.74 100 44 C67 44 34 44 0 44 C0 29.48 0 14.96 0 0 Z " fill="#FEFEFC" transform="translate(0,56)"/>
<path d="M0 0 C9.82391983 7.65035969 16.86043415 17.909239 19.1875 30.3125 C20.27449397 44.97800882 17.46226479 57.5350209 8.1875 69.3125 C-0.36665816 78.78787519 -12.27941956 84.87455152 -25.07421875 85.68359375 C-39.94815902 86.09643507 -51.4892189 82.36389929 -62.8125 72.3125 C-72.8579396 62.12968687 -77.09622401 50.22605399 -77.05688477 36.11010742 C-76.8352521 24.14628915 -71.67128927 13.18831333 -63.5 4.4375 C-45.55710056 -12.09416016 -19.95082099 -13.45520486 0 0 Z M-63 8.375 C-70.4422063 17.12703461 -73.98988325 27.12697245 -74 38.4375 C-74.01224609 39.16582031 -74.02449219 39.89414062 -74.03710938 40.64453125 C-74.04235188 42.53532978 -73.93483385 44.42565581 -73.8125 46.3125 C-73.1525 46.9725 -72.4925 47.6325 -71.8125 48.3125 C-71.8125 46.6625 -71.8125 45.0125 -71.8125 43.3125 C-69.8325 43.3125 -67.8525 43.3125 -65.8125 43.3125 C-67.7925 43.8075 -67.7925 43.8075 -69.8125 44.3125 C-69.8125 44.9725 -69.8125 45.6325 -69.8125 46.3125 C-68.1625 46.6425 -66.5125 46.9725 -64.8125 47.3125 C-67.1225 47.9725 -69.4325 48.6325 -71.8125 49.3125 C-71.63998156 57.0758298 -67.22725975 63.89774025 -61.8125 69.3125 C-58.57221325 68.89439848 -56.16549359 67.66549359 -53.8125 65.3125 C-54.4725 66.3025 -55.1325 67.2925 -55.8125 68.3125 C-55.4825 69.3025 -55.1525 70.2925 -54.8125 71.3125 C-53.8225 70.3225 -52.8325 69.3325 -51.8125 68.3125 C-51.3175 69.3025 -51.3175 69.3025 -50.8125 70.3125 C-52.2975 70.8075 -52.2975 70.8075 -53.8125 71.3125 C-53.4825 72.3025 -53.1525 73.2925 -52.8125 74.3125 C-53.8025 74.8075 -53.8025 74.8075 -54.8125 75.3125 C-53.00288423 76.94081762 -53.00288423 76.94081762 -50.8125 78.3125 C-49.3275 77.8175 -49.3275 77.8175 -47.8125 77.3125 C-49.2975 76.3225 -49.2975 76.3225 -50.8125 75.3125 C-51.1425 74.3225 -51.4725 73.3325 -51.8125 72.3125 C-50.8225 72.3125 -49.8325 72.3125 -48.8125 72.3125 C-48.8125 73.3025 -48.8125 74.2925 -48.8125 75.3125 C-47.3275 74.3225 -47.3275 74.3225 -45.8125 73.3125 C-45.8125 72.3225 -45.8125 71.3325 -45.8125 70.3125 C-45.1525 70.3125 -44.4925 70.3125 -43.8125 70.3125 C-44.4725 72.2925 -45.1325 74.2725 -45.8125 76.3125 C-45.1525 76.9725 -44.4925 77.6325 -43.8125 78.3125 C-41.5351499 75.49740007 -41.5351499 75.49740007 -41.8125 72.3125 C-41.1525 72.3125 -40.4925 72.3125 -39.8125 72.3125 C-40.3384375 73.67375 -40.3384375 73.67375 -40.875 75.0625 C-41.77718779 78.19008436 -41.94631507 79.36458081 -40.8125 82.3125 C-38.8325 82.3125 -36.8525 82.3125 -34.8125 82.3125 C-36.1325 81.6525 -37.4525 80.9925 -38.8125 80.3125 C-38.4825 78.0025 -38.1525 75.6925 -37.8125 73.3125 C-37.8125 75.2925 -37.8125 77.2725 -37.8125 79.3125 C-37.1525 79.3125 -36.4925 79.3125 -35.8125 79.3125 C-34.8225 77.8275 -34.8225 77.8275 -33.8125 76.3125 C-33.4825 77.6325 -33.1525 78.9525 -32.8125 80.3125 C-30.5888932 78.3870356 -30.5888932 78.3870356 -29.8125 75.3125 C-29.1525 76.6325 -28.4925 77.9525 -27.8125 79.3125 C-27.3175 77.3325 -27.3175 77.3325 -26.8125 75.3125 C-26.1525 77.2925 -25.4925 79.2725 -24.8125 81.3125 C-27.4525 81.6425 -30.0925 81.9725 -32.8125 82.3125 C-32.8125 82.6425 -32.8125 82.9725 -32.8125 83.3125 C-21.85276149 84.33783936 -10.71253386 81.6218682 -1.8125 75 C4.530281 69.48142218 10.31431007 63.36100097 13.1875 55.3125 C13.1875 54.3225 13.1875 53.3325 13.1875 52.3125 C12.5275 51.9825 11.8675 51.6525 11.1875 51.3125 C11.6825 50.3225 11.6825 50.3225 12.1875 49.3125 C11.5275 48.6525 10.8675 47.9925 10.1875 47.3125 C11.1775 46.9825 12.1675 46.6525 13.1875 46.3125 C12.5275 45.6525 11.8675 44.9925 11.1875 44.3125 C10.8575 43.9825 10.5275 43.6525 10.1875 43.3125 C11.5075 42.9825 12.8275 42.6525 14.1875 42.3125 C14.1875 44.2925 14.1875 46.2725 14.1875 48.3125 C16.39664 44.99879 16.41231553 43.9678979 16.3125 40.125 C16.29445313 39.22394531 16.27640625 38.32289062 16.2578125 37.39453125 C16.23460938 36.70746094 16.21140625 36.02039062 16.1875 35.3125 C15.8575 35.3125 15.5275 35.3125 15.1875 35.3125 C14.8575 36.9625 14.5275 38.6125 14.1875 40.3125 C12.2075 39.8175 12.2075 39.8175 10.1875 39.3125 C11.1775 39.3125 12.1675 39.3125 13.1875 39.3125 C13.1875 38.6525 13.1875 37.9925 13.1875 37.3125 C12.5275 36.9825 11.8675 36.6525 11.1875 36.3125 C11.8475 35.3225 12.5075 34.3325 13.1875 33.3125 C11.5375 32.9825 9.8875 32.6525 8.1875 32.3125 C9.8375 31.6525 11.4875 30.9925 13.1875 30.3125 C13.8475 31.3025 14.5075 32.2925 15.1875 33.3125 C15.78246939 23.56987617 10.55298946 14.77309823 4.5 7.375 C-1.68054405 0.91735554 -11.05113311 -5.12216832 -20.1484375 -5.8828125 C-22.03645833 -5.81770833 -23.92447917 -5.75260417 -25.8125 -5.6875 C-25.8125 -3.0475 -25.8125 -0.4075 -25.8125 2.3125 C-26.4725 1.6525 -27.1325 0.9925 -27.8125 0.3125 C-27.4375 -1.8125 -27.4375 -1.8125 -26.8125 -3.6875 C-27.8025 -4.0175 -28.7925 -4.3475 -29.8125 -4.6875 C-30.1425 -3.3675 -30.4725 -2.0475 -30.8125 -0.6875 C-30.8125 -1.6775 -30.8125 -2.6675 -30.8125 -3.6875 C-31.4725 -3.6875 -32.1325 -3.6875 -32.8125 -3.6875 C-32.8125 -4.3475 -32.8125 -5.0075 -32.8125 -5.6875 C-44.23115014 -6.92194866 -55.40437484 0.52043308 -63 8.375 Z " fill="#2DB5D4" transform="translate(78.8125,11.6875)"/>
<path d="M0 0 C5.92904003 4.77328174 10.07853821 10.25972097 11 18 C11.42290592 24.34358886 10.29653403 29.09462677 8 35 C5.12775803 32.12775803 5.27787671 28.87564892 5 25 C5 23.68 5 22.36 5 21 C3.58774074 20.32404685 2.16997095 19.65959941 0.75 19 C-0.03890625 18.62875 -0.8278125 18.2575 -1.640625 17.875 C-4.2056657 16.76818748 -4.2056657 16.76818748 -8 17 C-8 16.01 -8 15.02 -8 14 C-7.34 14 -6.68 14 -6 14 C-6 13.34 -6 12.68 -6 12 C-6.99 12 -7.98 12 -9 12 C-9 11.01 -9 10.02 -9 9 C-10.423125 9.99 -10.423125 9.99 -11.875 11 C-15 13 -15 13 -17 13 C-17 14.32 -17 15.64 -17 17 C-16.34 17 -15.68 17 -15 17 C-15.33 17.99 -15.66 18.98 -16 20 C-17.32 20 -18.64 20 -20 20 C-20.03738281 20.56847656 -20.07476562 21.13695313 -20.11328125 21.72265625 C-20.56978622 27.08435193 -21.63489082 31.1669508 -24 36 C-25.65 35.34 -27.3 34.68 -29 34 C-29.08089542 31.22858283 -29.14044062 28.45952181 -29.1875 25.6875 C-29.22520508 24.50897461 -29.22520508 24.50897461 -29.26367188 23.30664062 C-29.27333984 22.54931641 -29.28300781 21.79199219 -29.29296875 21.01171875 C-29.31653442 19.96697388 -29.31653442 19.96697388 -29.34057617 18.90112305 C-28.90238443 16.45510217 -27.86562642 15.57297914 -26 14 C-26.66 14 -27.32 14 -28 14 C-29.625 12.5 -29.625 12.5 -31 11 C-31.99 12.485 -31.99 12.485 -33 14 C-33.66 14.33 -34.32 14.66 -35 15 C-34.01 15.66 -33.02 16.32 -32 17 C-31.69720914 19.92104126 -31.58189159 22.58299784 -31.625 25.5 C-31.61339844 26.28503906 -31.60179687 27.07007812 -31.58984375 27.87890625 C-31.6015625 30.15625 -31.6015625 30.15625 -32 34 C-32.99 34.66 -33.98 35.32 -35 36 C-34.67 36.66 -34.34 37.32 -34 38 C-37 37 -37 37 -38.16796875 35.1015625 C-41.39630785 27.25954339 -42.53383644 19.80732588 -39.75 11.625 C-36.64678468 4.62141313 -31.59076335 0.66669229 -25 -3 C-16.72140615 -5.80431069 -7.26580502 -4.75554609 0 0 Z " fill="#1CB0DF" transform="translate(65,28)"/>
<path d="M0 0 C20.13 0 40.26 0 61 0 C61 0.33 61 0.66 61 1 C60.13217896 1.01401855 60.13217896 1.01401855 59.24682617 1.02832031 C44.1750553 1.33422433 28.65829847 2.18224848 17.34375 13.68359375 C16 15 16 15 14 15 C13.73058594 15.57105469 13.46117187 16.14210938 13.18359375 16.73046875 C11.96385355 19.06931052 10.5716511 21.15053544 9.0625 23.3125 C4.42764457 30.23659059 2.39125732 36.8652366 1 45 C0.67 45 0.34 45 0 45 C0 30.15 0 15.3 0 0 Z " fill="#FEFEFC" transform="translate(0,0)"/>
<path d="M0 0 C0 0.99 0 1.98 0 3 C0.99 3 1.98 3 3 3 C3 3.66 3 4.32 3 5 C2.34 5 1.68 5 1 5 C1 5.99 1 6.98 1 8 C1.82757813 7.67708984 1.82757813 7.67708984 2.671875 7.34765625 C5.87276996 6.86967026 7.43221498 7.91737914 10.25 9.4375 C11.14203125 9.91058594 12.0340625 10.38367187 12.953125 10.87109375 C13.62859375 11.24363281 14.3040625 11.61617187 15 12 C14.97679688 12.56847656 14.95359375 13.13695312 14.9296875 13.72265625 C14.80808312 18.92558648 15.32276508 23.07312243 17 28 C14.05383462 29.47308269 11.52237406 29.00294692 8.2421875 28.87890625 C7.57913605 28.85529526 6.91608459 28.83168427 6.23294067 28.80735779 C4.11340871 28.73073184 1.99424315 28.64670357 -0.125 28.5625 C-1.56117994 28.50927819 -2.9973778 28.4565378 -4.43359375 28.40429688 C-7.95595436 28.27511856 -11.47802352 28.1392997 -15 28 C-14.39322536 23.42210208 -13.5474291 19.35214434 -12 15 C-11.65023242 13.67088318 -11.30903983 12.33917261 -11 11 C-10.360625 10.87625 -9.72125 10.7525 -9.0625 10.625 C-8.381875 10.41875 -7.70125 10.2125 -7 10 C-6.67 9.34 -6.34 8.68 -6 8 C-6.66 8 -7.32 8 -8 8 C-8 6.68 -8 5.36 -8 4 C-2.88888889 0 -2.88888889 0 0 0 Z " fill="#FEFEF8" transform="translate(56,37)"/>
<path d="M0 0 C3.465 1.485 3.465 1.485 7 3 C6.09326425 9.60621762 6.09326425 9.60621762 5.4375 12.375 C3.82876868 22.02738791 5.46176111 31.55425388 10.84765625 39.84375 C16.20340144 46.29786036 22.32121577 49.80375479 30 53 C29.67 55.97 29.34 58.94 29 62 C30.32 62.66 31.64 63.32 33 64 C31.02 64 29.04 64 27 64 C25.53273202 60.18510326 26.56663581 57.70988378 28 54 C27.34 54 26.68 54 26 54 C25.87625 54.61875 25.7525 55.2375 25.625 55.875 C25 58 25 58 23 60 C21.7922442 56.37673261 22.45688872 55.35853631 24 52 C23.34 52 22.68 52 22 52 C21.67 53.32 21.34 54.64 21 56 C20.01 56 19.02 56 18 56 C18 55.34 18 54.68 18 54 C17.34 54 16.68 54 16 54 C16.9977758 56.99332739 17.7522025 57.94766315 20 60 C16.73045798 59.43628586 15.17424117 58.50037734 13 56 C13.66 56 14.32 56 15 56 C14.67 55.01 14.34 54.02 14 53 C15.485 52.505 15.485 52.505 17 52 C16.67 51.34 16.34 50.68 16 50 C14.68 50.99 13.36 51.98 12 53 C12.165 52.360625 12.33 51.72125 12.5 51.0625 C13.03926667 49.19173179 13.03926667 49.19173179 13 48 C12.13375 48.7734375 12.13375 48.7734375 11.25 49.5625 C9 51 9 51 7.0859375 50.88671875 C4.15955468 49.64273205 3.1352533 47.8709939 1.375 45.25 C0.48941406 43.95835938 0.48941406 43.95835938 -0.4140625 42.640625 C-2.32150764 39.46468187 -4 36.57179779 -4 32.8125 C-3 31 -3 31 0.0625 29.75 C1.031875 29.5025 2.00125 29.255 3 29 C1.35 28.67 -0.3 28.34 -2 28 C-2 27.34 -2 26.68 -2 26 C-0.68 25.67 0.64 25.34 2 25 C0.02 25 -1.96 25 -4 25 C-4 26.65 -4 28.3 -4 30 C-6 28 -6 28 -6.1953125 24.3046875 C-6.182009 22.82799892 -6.15814835 21.35137642 -6.125 19.875 C-6.11146484 18.74384766 -6.11146484 18.74384766 -6.09765625 17.58984375 C-6.0740687 15.72642746 -6.03819719 13.86317407 -6 12 C-3.36 12.66 -0.72 13.32 2 14 C0.62514468 12.45833358 0.62514468 12.45833358 -1 11 C-1.66 11 -2.32 11 -3 11 C-2.67 9.02 -2.34 7.04 -2 5 C-0.35 5 1.3 5 3 5 C1.68 4.67 0.36 4.34 -1 4 C-0.67 2.68 -0.34 1.36 0 0 Z " fill="#7ACEA2" transform="translate(11,30)"/>
<path d="M0 0 C3.3 0.33 6.6 0.66 10 1 C8.50519999 10.76834426 1.76180199 18.43644886 -5.765625 24.3984375 C-14.7452543 30.62381075 -25.23778361 32.77643244 -36 32 C-36 31.67 -36 31.34 -36 31 C-32.04 30.505 -32.04 30.505 -28 30 C-28.66 28.02 -29.32 26.04 -30 24 C-30.66 25.32 -31.32 26.64 -32 28 C-32.66 26.68 -33.32 25.36 -34 24 C-34.33 25.65 -34.66 27.3 -35 29 C-35.66 28.67 -36.32 28.34 -37 28 C-37 26.68 -37 25.36 -37 24 C-37.66 25.32 -38.32 26.64 -39 28 C-39.66 28 -40.32 28 -41 28 C-41 25.69 -41 23.38 -41 21 C-39.97261719 20.97421875 -38.94523437 20.9484375 -37.88671875 20.921875 C-25.00372233 20.4573139 -15.34975326 18.5041124 -6 9 C-5.48308594 8.43023437 -4.96617188 7.86046875 -4.43359375 7.2734375 C-3.96050781 6.85320312 -3.48742187 6.43296875 -3 6 C0.397448 6.26134215 3.04094682 7.35608156 6 9 C6 8.34 6 7.68 6 7 C4.68 6.67 3.36 6.34 2 6 C2 5.34 2 4.68 2 4 C3.98 4.33 5.96 4.66 8 5 C8 4.34 8 3.68 8 3 C7.4225 2.87625 6.845 2.7525 6.25 2.625 C4 2 4 2 0 0 Z " fill="#BBE477" transform="translate(82,63)"/>
<path d="M0 0 C11.22815556 7.35825729 18.72133465 17.81312678 22.453125 30.75 C23.58620263 40.53024903 24.10681444 51.29900939 19.75 60.3125 C19.42128906 61.10527344 19.09257813 61.89804688 18.75390625 62.71484375 C12.73436373 76.23277833 2.25843488 84.08921832 -11.13671875 89.47265625 C-23.91332806 93.48283289 -37.14755277 91.62059089 -49.25 86.3125 C-62.2521699 79.22610836 -70.56727818 68.30696912 -74.89038086 54.22680664 C-78.12370746 42.03127748 -76.23083786 29.49807346 -70.375 18.375 C-63.20643055 6.30529183 -51.96787522 -2.36009107 -38.34130859 -6.22949219 C-25.31085992 -9.08323042 -11.50339841 -6.33392643 0 0 Z M-45.25 -1.6875 C-46.35988281 -1.19443359 -46.35988281 -1.19443359 -47.4921875 -0.69140625 C-60.20712867 5.66606434 -67.64146224 15.75126763 -73.1875 28.4609375 C-76.97968783 40.52220157 -74.31375214 54.30080213 -68.7421875 65.28515625 C-61.9044257 76.84574423 -51.27385083 85.10065341 -38.29589844 88.88183594 C-24.95010423 91.69114154 -11.03646992 88.95726995 0.5625 82.125 C9.18341932 76.22713671 14.80537491 68.93499454 18.75 59.3125 C19.0696875 58.54421875 19.389375 57.7759375 19.71875 56.984375 C23.80251471 45.56495886 22.81123756 33.21362706 17.75 22.3125 C10.71979569 8.76205438 0.84833022 1.8732444 -13.03515625 -3.83203125 C-17.24116867 -4.95124962 -21.16538852 -5.02951334 -25.5 -5 C-26.3461084 -4.99508545 -27.1922168 -4.9901709 -28.06396484 -4.98510742 C-34.21162564 -4.86977224 -39.59976079 -4.26242451 -45.25 -1.6875 Z " fill="#EAF568" transform="translate(76.25,7.6875)"/>
<path d="M0 0 C2.02350324 3.03525486 2.32124018 4.19426202 2.625 7.6875 C2.69976562 8.49574219 2.77453125 9.30398437 2.8515625 10.13671875 C2.90054688 10.75160156 2.94953125 11.36648437 3 12 C3.33 10.35 3.66 8.7 4 7 C4.99 7 5.98 7 7 7 C6.97679687 7.60328125 6.95359375 8.2065625 6.9296875 8.828125 C6.91164062 9.62734375 6.89359375 10.4265625 6.875 11.25 C6.85179687 12.03890625 6.82859375 12.8278125 6.8046875 13.640625 C7.02045562 16.24710389 7.59064875 17.80767583 9 20 C11.05000871 20.80528889 11.05000871 20.80528889 13 21 C12.34 21.66 11.68 22.32 11 23 C12.32 23.66 13.64 24.32 15 25 C15 25.66 15 26.32 15 27 C13.02 26.67 11.04 26.34 9 26 C9.495 26.99 9.495 26.99 10 28 C10.99 28.33 11.98 28.66 13 29 C13 29.66 13 30.32 13 31 C12.278125 30.649375 11.55625 30.29875 10.8125 29.9375 C7.61636431 28.87212144 6.1605851 28.9187472 3 30 C2.525625 30.495 2.05125 30.99 1.5625 31.5 C-0.70217889 33.67409173 -2.95707737 33.66189749 -6 34 C-6 34.66 -6 35.32 -6 36 C-10.15267176 39.11450382 -10.15267176 39.11450382 -13.3125 38.6875 C-13.869375 38.460625 -14.42625 38.23375 -15 38 C-14.505 37.01 -14.505 37.01 -14 36 C-13.34 36 -12.68 36 -12 36 C-12 35.01 -12 34.02 -12 33 C-13.093125 33.495 -14.18625 33.99 -15.3125 34.5 C-21.77445025 36.85083252 -27.73140566 37.22127648 -34.23046875 34.79296875 C-39.21661801 32.3940297 -43.23045154 30.09927256 -47 26 C-46.67 25.34 -46.34 24.68 -46 24 C-43.69 25.98 -41.38 27.96 -39 30 C-38.67 29.34 -38.34 28.68 -38 28 C-34.66666667 28.66666667 -31.33333333 29.33333333 -28 30 C-27.06542969 30.18691406 -26.13085938 30.37382813 -25.16796875 30.56640625 C-24.45253906 30.70949219 -23.73710938 30.85257813 -23 31 C-23 31.66 -23 32.32 -23 33 C-24.6254308 32.85904936 -26.25034051 32.71207913 -27.875 32.5625 C-28.77992187 32.48128906 -29.68484375 32.40007812 -30.6171875 32.31640625 C-33 32 -33 32 -35 31 C-35 31.66 -35 32.32 -35 33 C-28.14975385 34.37004923 -21.85024615 34.37004923 -15 33 C-15 32.34 -15 31.68 -15 31 C-13.948125 30.5875 -12.89625 30.175 -11.8125 29.75 C-5.74850359 27.08861693 -5.74850359 27.08861693 -2.02734375 21.75390625 C0.23227156 14.51262742 0.32318748 7.52907126 0 0 Z " fill="#59C3B8" transform="translate(75,41)"/>
<path d="M0 0 C0 0.99 0 1.98 0 3 C-1.32 2.67 -2.64 2.34 -4 2 C-4 2.66 -4 3.32 -4 4 C-2.02 4 -0.04 4 2 4 C1.67 4.66 1.34 5.32 1 6 C-0.65 6 -2.3 6 -4 6 C-5.5483183 11.31937576 -3.92141587 13.92465466 -1.4140625 18.6171875 C0.17332921 21.29207409 1.91869363 23.68743737 4 26 C7.26954202 25.43628586 8.82575883 24.50037734 11 22 C11.66 22.33 12.32 22.66 13 23 C13 23.66 13 24.32 13 25 C12.34 25.33 11.68 25.66 11 26 C11.33 26.33 11.66 26.66 12 27 C12.99 26.01 13.98 25.02 15 24 C15 25.32 15 26.64 15 28 C14.34 28.66 13.68 29.32 13 30 C12.67 30.99 12.34 31.98 12 33 C13.485 33.495 13.485 33.495 15 34 C14.67 32.68 14.34 31.36 14 30 C14.66 29.67 15.32 29.34 16 29 C16.66 28.01 17.32 27.02 18 26 C17.67 27.98 17.34 29.96 17 32 C17.66 31.67 18.32 31.34 19 31 C19.33 30.01 19.66 29.02 20 28 C20.66 28 21.32 28 22 28 C21.67 29.98 21.34 31.96 21 34 C21.99 33.505 21.99 33.505 23 33 C23.33 32.01 23.66 31.02 24 30 C24.66 30 25.32 30 26 30 C25.67 32.97 25.34 35.94 25 39 C26.49743119 37.50256881 26.33202693 36.01175761 26.5625 33.9375 C26.706875 32.638125 26.85125 31.33875 27 30 C27.66 30.33 28.32 30.66 29 31 C28.67 32.98 28.34 34.96 28 37 C28.66 37 29.32 37 30 37 C30.33 35.02 30.66 33.04 31 31 C33 34 33 34 33 37 C33.33 35.35 33.66 33.7 34 32 C38 32 38 32 40 33 C40 34.65 40 36.3 40 38 C40.99 38.495 40.99 38.495 42 39 C40.38818205 40.61181795 38.39211181 40.58683702 36.1875 41 C32.57311738 41.66044247 32.57311738 41.66044247 29.0546875 42.68359375 C22.14927589 43.74697463 13.64859713 38.06509747 8.1875 34.3125 C-0.90979575 27.22799749 -6.40167216 18.93338076 -10 8 C-10 7.34 -10 6.68 -10 6 C-9.34 6 -8.68 6 -8 6 C-7.79375 5.195625 -7.5875 4.39125 -7.375 3.5625 C-6.92125 2.716875 -6.4675 1.87125 -6 1 C-2.875 0.1875 -2.875 0.1875 0 0 Z " fill="#2CB5D5" transform="translate(13,54)"/>
<path d="M0 0 C0.33 0 0.66 0 1 0 C1.14695312 0.76183594 1.29390625 1.52367187 1.4453125 2.30859375 C3.39615891 11.28921428 6.08901525 18.76225707 14.0625 23.9375 C21.41160568 28.13054803 28.39494034 29.39521629 36.71484375 27.32421875 C38.84402785 26.61449072 40.92734812 25.85976671 43 25 C43.495 25.99 43.495 25.99 44 27 C43.34 27 42.68 27 42 27 C42 27.66 42 28.32 42 29 C41.34 29.66 40.68 30.32 40 31 C42.76276177 30.47731534 45.3260876 29.89130413 48 29 C48 28.34 48 27.68 48 27 C48.66 27 49.32 27 50 27 C50.33 25.68 50.66 24.36 51 23 C51 23.99 51 24.98 51 26 C51.66 26.33 52.32 26.66 53 27 C45.67920006 34.12294048 37.46148587 36.34195853 27.4375 36.4375 C26.73447754 36.4475708 26.03145508 36.4576416 25.30712891 36.46801758 C23.30859375 36.43359375 23.30859375 36.43359375 20 36 C19.34 35.01 18.68 34.02 18 33 C21.465 33.495 21.465 33.495 25 34 C24.505 33.505 24.505 33.505 24 33 C23.67 32.34 23.34 31.68 23 31 C22.278125 31.268125 21.55625 31.53625 20.8125 31.8125 C18 32 18 32 15.3125 29.6875 C14.549375 28.800625 13.78625 27.91375 13 27 C12.34 26.34 11.68 25.68 11 25 C10.195625 25.061875 9.39125 25.12375 8.5625 25.1875 C7.2940625 25.0946875 7.2940625 25.0946875 6 25 C3.36439287 21.72821183 3 20.27931853 3 16 C2.34 15.01 1.68 14.02 1 13 C0.875 9.8125 0.875 9.8125 1 7 C0.01 6.67 -0.98 6.34 -2 6 C-1.34 4.02 -0.68 2.04 0 0 Z " fill="#23B2E0" transform="translate(21,48)"/>
<path d="M0 0 C0.99 0.33 1.98 0.66 3 1 C2.01 2.485 2.01 2.485 1 4 C0.34 4 -0.32 4 -1 4 C-1 4.66 -1 5.32 -1 6 C2.0745356 5.2236068 2.0745356 5.2236068 4 3 C4 6 4 6 2.5 7.6875 C2.005 8.120625 1.51 8.55375 1 9 C1.99 8.67 2.98 8.34 4 8 C4.33 7.34 4.66 6.68 5 6 C5.66 6 6.32 6 7 6 C6.6875 7.9375 6.6875 7.9375 6 10 C5.01 10.33 4.02 10.66 3 11 C2.10267475 14.05090586 1.86325711 15.62505982 2.96875 18.65625 C4.21556335 22.69894784 4.22356691 26.18211525 4.125 30.375 C4.11597656 31.11105469 4.10695313 31.84710938 4.09765625 32.60546875 C4.07430144 34.4037888 4.03843836 36.20193911 4 38 C3.01 38 2.02 38 1 38 C1.33 34.7 1.66 31.4 2 28 C1.01 28 0.02 28 -1 28 C-1.33 30.64 -1.66 33.28 -2 36 C-2.33 36 -2.66 36 -3 36 C-3.33 31.05 -3.66 26.1 -4 21 C-4.66 21 -5.32 21 -6 21 C-6.69699552 19.54618103 -7.38233866 18.08677047 -8.0625 16.625 C-8.44535156 15.81289063 -8.82820313 15.00078125 -9.22265625 14.1640625 C-9.60744141 13.09285156 -9.60744141 13.09285156 -10 12 C-9.67 11.34 -9.34 10.68 -9 10 C-6.20127563 12.52788007 -4.54226981 14.20411134 -4 18 C-2.95550089 14.86650268 -3.06576355 14.01031744 -4 11 C-4.66 11 -5.32 11 -6 11 C-9 7.53846154 -9 7.53846154 -9 5 C-9.99 5 -10.98 5 -12 5 C-12 3.68 -12 2.36 -12 1 C-9.33333333 2.33333333 -6.66666667 3.66666667 -4 5 C-3.67 4.34 -3.34 3.68 -3 3 C-2.01 2.34 -1.02 1.68 0 1 C0 0.67 0 0.34 0 0 Z " fill="#2AB4DD" transform="translate(80,20)"/>
<path d="M0 0 C3.3 0.33 6.6 0.66 10 1 C8.63532558 9.91798863 2.77167067 17.30420224 -4 23 C-8.35483871 26 -8.35483871 26 -11 26 C-11 25.34 -11 24.68 -11 24 C-11.99 24 -12.98 24 -14 24 C-14 22.35 -14 20.7 -14 19 C-13.38125 19.66 -12.7625 20.32 -12.125 21 C-10.24362573 23.2284549 -10.24362573 23.2284549 -8 23 C-8.66 22.67 -9.32 22.34 -10 22 C-10 20.68 -10 19.36 -10 18 C-11.32 17.34 -12.64 16.68 -14 16 C-13.45730469 15.52949219 -12.91460937 15.05898437 -12.35546875 14.57421875 C-11.64003906 13.95160156 -10.92460938 13.32898438 -10.1875 12.6875 C-9.12595703 11.76517578 -9.12595703 11.76517578 -8.04296875 10.82421875 C-6.01489109 9.07202427 -6.01489109 9.07202427 -4.390625 7.2578125 C-3.70226562 6.63519531 -3.70226562 6.63519531 -3 6 C0.397448 6.26134215 3.04094682 7.35608156 6 9 C6 8.34 6 7.68 6 7 C4.68 6.67 3.36 6.34 2 6 C2 5.34 2 4.68 2 4 C4.97 4.495 4.97 4.495 8 5 C8 4.34 8 3.68 8 3 C7.4225 2.87625 6.845 2.7525 6.25 2.625 C4 2 4 2 0 0 Z " fill="#D5ED66" transform="translate(82,63)"/>
<path d="M0 0 C0.495 0.99 0.495 0.99 1 2 C0.31035156 2.21914062 -0.37929688 2.43828125 -1.08984375 2.6640625 C-12.64126351 6.56207246 -21.89115444 12.25533625 -27.73046875 23.26171875 C-30.57230038 29.2896419 -32.98198019 34.6396038 -33.31640625 41.328125 C-33.35830078 42.12734375 -33.40019531 42.9265625 -33.44335938 43.75 C-33.48267578 44.575 -33.52199219 45.4 -33.5625 46.25 C-33.60568359 47.09046875 -33.64886719 47.9309375 -33.69335938 48.796875 C-33.79908543 50.86440671 -33.90001295 52.93218281 -34 55 C-34.66 55 -35.32 55 -36 55 C-39.36642229 44.90073314 -37.11233948 33.2407634 -32.48828125 23.96875 C-27.3712228 14.67755173 -12.56347232 -4.18782411 0 0 Z " fill="#2EB5D4" transform="translate(39,5)"/>
<path d="M0 0 C9.57 0 19.14 0 29 0 C29.66 2.31 30.32 4.62 31 7 C28.05383462 8.47308269 25.52237406 8.00294692 22.2421875 7.87890625 C21.57913605 7.85529526 20.91608459 7.83168427 20.23294067 7.80735779 C18.11340871 7.73073184 15.99424315 7.64670357 13.875 7.5625 C12.43882006 7.50927819 11.0026222 7.4565378 9.56640625 7.40429688 C6.04404564 7.27511856 2.52197648 7.1392997 -1 7 C-0.67 4.69 -0.34 2.38 0 0 Z " fill="#A7DF78" transform="translate(42,58)"/>
<path d="M0 0 C1.98 0.66 3.96 1.32 6 2 C6 2.99 6 3.98 6 5 C7.32 5.33 8.64 5.66 10 6 C7.36 7.98 4.72 9.96 2 12 C0.68 11.34 -0.64 10.68 -2 10 C-2 9.34 -2 8.68 -2 8 C-2.99 8.33 -3.98 8.66 -5 9 C-4.01 9.66 -3.02 10.32 -2 11 C-2 11.66 -2 12.32 -2 13 C-0.68 13.33 0.64 13.66 2 14 C1.01 14.495 1.01 14.495 0 15 C-2.625 14.0625 -2.625 14.0625 -5 13 C-2.525 14.98 -2.525 14.98 0 17 C-0.66 17.66 -1.32 18.32 -2 19 C-2 18.34 -2 17.68 -2 17 C-4.49064888 16.31292445 -6.37886292 16 -9 16 C-9.33 16.66 -9.66 17.32 -10 18 C-9.01 17.67 -8.02 17.34 -7 17 C-6.34 17.99 -5.68 18.98 -5 20 C-6.98 19.67 -8.96 19.34 -11 19 C-11 20.65 -11 22.3 -11 24 C-9.68 24.66 -8.36 25.32 -7 26 C-7 26.66 -7 27.32 -7 28 C-9.31 28 -11.62 28 -14 28 C-13.62151466 16.45619703 -7.86662097 8.12263526 0 0 Z " fill="#A1DC88" transform="translate(20,16)"/>
<path d="M0 0 C1.1240625 0.26425781 2.248125 0.52851563 3.40625 0.80078125 C6.03597202 1.55450208 8.21605585 2.19539498 10.5 3.6875 C10.83 4.6775 11.16 5.6675 11.5 6.6875 C12.49 6.6875 13.48 6.6875 14.5 6.6875 C17.5 10.02083333 17.5 10.02083333 17.5 12.6875 C18.16 12.6875 18.82 12.6875 19.5 12.6875 C19.995 14.1725 19.995 14.1725 20.5 15.6875 C21.16 16.3475 21.82 17.0075 22.5 17.6875 C22.17 18.3475 21.84 19.0075 21.5 19.6875 C20.84 19.6875 20.18 19.6875 19.5 19.6875 C18.51 17.7075 17.52 15.7275 16.5 13.6875 C15.84 13.6875 15.18 13.6875 14.5 13.6875 C14.5 14.6775 14.5 15.6675 14.5 16.6875 C13.91992188 16.13320313 13.33984375 15.57890625 12.7421875 15.0078125 C11.96101563 14.28335938 11.17984375 13.55890625 10.375 12.8125 C9.60929687 12.09320313 8.84359375 11.37390625 8.0546875 10.6328125 C2.71868214 6.56961576 -2.44896028 6.41143578 -8.875 6.5625 C-9.61105469 6.57152344 -10.34710938 6.58054687 -11.10546875 6.58984375 C-12.9037888 6.61319856 -14.70193911 6.64906164 -16.5 6.6875 C-12.81265242 4.22926828 -9.80300029 3.67507384 -5.5 2.6875 C-7.48 2.6875 -9.46 2.6875 -11.5 2.6875 C-11.17 1.6975 -10.84 0.7075 -10.5 -0.3125 C-6.90983083 -1.98057388 -3.71009251 -0.89774028 0 0 Z " fill="#5BC4B7" transform="translate(56.5,18.3125)"/>
<path d="M0 0 C0 0.66 0 1.32 0 2 C-1.32 2 -2.64 2 -4 2 C-3.67 2.66 -3.34 3.32 -3 4 C-1.05925139 3.72382467 -1.05925139 3.72382467 1 3 C1.66 2.01 2.32 1.02 3 0 C4 1 4 1 4.0625 4.5625 C4.041875 5.696875 4.02125 6.83125 4 8 C3.34 7.01 2.68 6.02 2 5 C0.35 5.66 -1.3 6.32 -3 7 C-1.35 7.33 0.3 7.66 2 8 C1.01 9.485 1.01 9.485 0 11 C0.66 11.33 1.32 11.66 2 12 C2 12.66 2 13.32 2 14 C0.35 14 -1.3 14 -3 14 C-0.03 14.495 -0.03 14.495 3 15 C3.33 13.35 3.66 11.7 4 10 C4.33 10 4.66 10 5 10 C5.05416188 11.60379341 5.09286638 13.20811406 5.125 14.8125 C5.14820312 15.70582031 5.17140625 16.59914063 5.1953125 17.51953125 C5 20 5 20 3 23 C3 21.02 3 19.04 3 17 C1.02 17.33 -0.96 17.66 -3 18 C-0.525 18.99 -0.525 18.99 2 20 C1.67 20.66 1.34 21.32 1 22 C0.01 22 -0.98 22 -2 22 C-1.01 22.99 -0.02 23.98 1 25 C-1.66666667 25 -4.33333333 25 -7 25 C-7 17.08 -7 9.16 -7 1 C-4 0 -4 0 0 0 Z " fill="#B3E17C" transform="translate(90,37)"/>
<path d="M0 0 C0.99 1.0209375 0.99 1.0209375 2 2.0625 C2.99521345 3.04653128 3.9958463 4.02509349 5 5 C5.59296875 5.5775 6.1859375 6.155 6.796875 6.75 C11.53675334 11.1486071 15.97663545 13.64712322 22 16 C21.67 18.97 21.34 21.94 21 25 C22.32 25.66 23.64 26.32 25 27 C23.02 27 21.04 27 19 27 C17.53273202 23.18510326 18.56663581 20.70988378 20 17 C19.34 17 18.68 17 18 17 C17.87625 17.61875 17.7525 18.2375 17.625 18.875 C17 21 17 21 15 23 C13.7922442 19.37673261 14.45688872 18.35853631 16 15 C15.34 15 14.68 15 14 15 C13.67 16.32 13.34 17.64 13 19 C12.01 19 11.02 19 10 19 C10 18.34 10 17.68 10 17 C9.34 17 8.68 17 8 17 C8.9977758 19.99332739 9.7522025 20.94766315 12 23 C8.73045798 22.43628586 7.17424117 21.50037734 5 19 C5.66 19 6.32 19 7 19 C6.67 18.01 6.34 17.02 6 16 C6.99 15.67 7.98 15.34 9 15 C8.67 14.34 8.34 13.68 8 13 C6.68 13.99 5.36 14.98 4 16 C4.165 15.360625 4.33 14.72125 4.5 14.0625 C5.03926667 12.19173179 5.03926667 12.19173179 5 11 C4.4225 11.515625 3.845 12.03125 3.25 12.5625 C1 14 1 14 -1.1875 13.875 C-2.0846875 13.441875 -2.0846875 13.441875 -3 13 C-3.33 12.01 -3.66 11.02 -4 10 C-3.34 10 -2.68 10 -2 10 C-1.67 10.66 -1.34 11.32 -1 12 C-0.34 11.34 0.32 10.68 1 10 C1.99 10 2.98 10 4 10 C3.34 9.01 2.68 8.02 2 7 C2 6.01 2 5.02 2 4 C1.01 4.66 0.02 5.32 -1 6 C-1.99 6 -2.98 6 -4 6 C-4 5.34 -4 4.68 -4 4 C-3.01 4 -2.02 4 -1 4 C-0.67 2.68 -0.34 1.36 0 0 Z " fill="#D2EC67" transform="translate(19,67)"/>
<path d="M0 0 C3.465 1.485 3.465 1.485 7 3 C6.44687265 7.02992782 5.8441938 11.02022924 5 15 C3.68 15.33 2.36 15.66 1 16 C1.66 16.33 2.32 16.66 3 17 C3 18.65 3 20.3 3 22 C0 23 0 23 -3 22 C-3 22.66 -3 23.32 -3 24 C-3.66 24 -4.32 24 -5 24 C-5.33 20.04 -5.66 16.08 -6 12 C-3.36 12.66 -0.72 13.32 2 14 C0.62514468 12.45833358 0.62514468 12.45833358 -1 11 C-1.66 11 -2.32 11 -3 11 C-2.67 9.02 -2.34 7.04 -2 5 C-0.35 5 1.3 5 3 5 C1.68 4.67 0.36 4.34 -1 4 C-0.67 2.68 -0.34 1.36 0 0 Z " fill="#C4E770" transform="translate(11,30)"/>
<path d="M0 0 C1.43931117 0.45261358 2.87638999 0.91232979 4.3125 1.375 C5.11300781 1.63023438 5.91351563 1.88546875 6.73828125 2.1484375 C9 3 9 3 12 5 C11.67 8.3 11.34 11.6 11 15 C7.37 15 3.74 15 0 15 C0.33 13.68 0.66 12.36 1 11 C1.66 11 2.32 11 3 11 C3 10.34 3 9.68 3 9 C1.68 9.33 0.36 9.66 -1 10 C-1.09978121 6.50765756 -0.77842938 3.40562852 0 0 Z " fill="#FCFEDA" transform="translate(59,44)"/>
<path d="M0 0 C1.20628008 2.33214148 2.1654738 4.49642139 3 7 C3.66 7 4.32 7 5 7 C5.33 6.34 5.66 5.68 6 5 C5.6875 6.9375 5.6875 6.9375 5 9 C4.01 9.33 3.02 9.66 2 10 C2.16242187 10.5671875 2.32484375 11.134375 2.4921875 11.71875 C3.01234091 14.05543918 3.13318559 16.10980766 3.125 18.5 C3.12757812 19.2528125 3.13015625 20.005625 3.1328125 20.78125 C3.00158417 22.973535 2.60331338 24.89319137 2 27 C3.32 27.33 4.64 27.66 6 28 C6 28.66 6 29.32 6 30 C2.7 30 -0.6 30 -4 30 C-4 29.01 -4 28.02 -4 27 C-3.01 27 -2.02 27 -1 27 C-1.26103516 25.95779297 -1.26103516 25.95779297 -1.52734375 24.89453125 C-2.05332633 21.67343131 -1.88327655 18.93090738 -1.5625 15.6875 C-1.46066406 14.61886719 -1.35882813 13.55023438 -1.25390625 12.44921875 C-1.12822266 11.23685547 -1.12822266 11.23685547 -1 10 C-2.32 9.34 -3.64 8.68 -5 8 C-4.67 7.01 -4.34 6.02 -4 5 C-4 5.66 -4 6.32 -4 7 C-3.34 7 -2.68 7 -2 7 C-1.34 4.69 -0.68 2.38 0 0 Z " fill="#BCE680" transform="translate(34,35)"/>
<path d="M0 0 C3.42436208 2.9836935 3.57781494 5.5248384 4 10 C0.16674383 12.70582788 -2.32538149 13.32613618 -7 13 C-7.33 12.01 -7.66 11.02 -8 10 C-10.00016466 8.79117904 -10.00016466 8.79117904 -12 8 C-8.59287819 4.02502456 -4.67239145 2.13206212 0 0 Z " fill="#92D692" transform="translate(33,8)"/>
<path d="M0 0 C0 0.66 0 1.32 0 2 C0.66 2 1.32 2 2 2 C2 3.65 2 5.3 2 7 C2.33 5.02 2.66 3.04 3 1 C3.99 1.33 4.98 1.66 6 2 C5.67 3.65 5.34 5.3 5 7 C5.66 7.33 6.32 7.66 7 8 C7 5.36 7 2.72 7 0 C8.98 0 10.96 0 13 0 C12.67 0.99 12.34 1.98 12 3 C12.66 3 13.32 3 14 3 C13.67 5.31 13.34 7.62 13 10 C12.01 9.67 11.02 9.34 10 9 C10.33 6.36 10.66 3.72 11 1 C10.34 1 9.68 1 9 1 C9.33 1.99 9.66 2.98 10 4 C9.5625 6.6875 9.5625 6.6875 9 9 C6.03 9 3.06 9 0 9 C-1.35439668 6.29120665 -1.06501451 3.99066732 -1 1 C-1.99 1 -2.98 1 -4 1 C-4 1.66 -4 2.32 -4 3 C-3.34 3 -2.68 3 -2 3 C-2.33 4.65 -2.66 6.3 -3 8 C-3.66 7.67 -4.32 7.34 -5 7 C-5 5.35 -5 3.7 -5 2 C-5.99 2 -6.98 2 -8 2 C-7.67 3.98 -7.34 5.96 -7 8 C-7.66 8 -8.32 8 -9 8 C-9 6.35 -9 4.7 -9 3 C-9.99 2.67 -10.98 2.34 -12 2 C-7.82262526 0.40861915 -4.46839215 -0.21278058 0 0 Z " fill="#D2EC68" transform="translate(46,6)"/>
<path d="M0 0 C0 0.99 0 1.98 0 3 C-0.99 3.495 -0.99 3.495 -2 4 C-2 4.99 -2 5.98 -2 7 C-4.95079533 9.22948981 -7.48579624 10.82859875 -11 12 C-11.69937532 13.31647119 -12.36729133 14.65022151 -13 16 C-13.66 16.33 -14.32 16.66 -15 17 C-15 16.01 -15 15.02 -15 14 C-15.99 14.33 -16.98 14.66 -18 15 C-18 13.33333333 -18 11.66666667 -18 10 C-17.01 9.67 -16.02 9.34 -15 9 C-14.2575 8.236875 -13.515 7.47375 -12.75 6.6875 C-9.09213162 3.112765 -5.31275865 0 0 0 Z " fill="#5BC4B9" transform="translate(42,19)"/>
<path d="M0 0 C5.61 0 11.22 0 17 0 C17 0.66 17 1.32 17 2 C16.34 2 15.68 2 15 2 C15 4.31 15 6.62 15 9 C17.64 8.67 20.28 8.34 23 8 C18.63228707 10.91180862 15.44846409 11.12438648 10.25 11.0625 C9.26515625 11.05347656 8.2803125 11.04445313 7.265625 11.03515625 C6.51796875 11.02355469 5.7703125 11.01195313 5 11 C5 10.67 5 10.34 5 10 C7.64 9.67 10.28 9.34 13 9 C12.34 7.02 11.68 5.04 11 3 C10.34 4.32 9.68 5.64 9 7 C8.34 5.68 7.68 4.36 7 3 C6.67 4.65 6.34 6.3 6 8 C5.34 7.67 4.68 7.34 4 7 C4 5.68 4 4.36 4 3 C3.34 4.32 2.68 5.64 2 7 C1.34 7 0.68 7 0 7 C0 4.69 0 2.38 0 0 Z " fill="#DBEF62" transform="translate(41,84)"/>
<path d="M0 0 C2.64 1.98 5.28 3.96 8 6 C8.33 5.34 8.66 4.68 9 4 C12.33333333 4.66666667 15.66666667 5.33333333 19 6 C19.93457031 6.18691406 20.86914062 6.37382813 21.83203125 6.56640625 C22.54746094 6.70949219 23.26289062 6.85257812 24 7 C24 7.66 24 8.32 24 9 C22.3745692 8.85904936 20.74965949 8.71207913 19.125 8.5625 C18.22007813 8.48128906 17.31515625 8.40007812 16.3828125 8.31640625 C14 8 14 8 12 7 C12 7.66 12 8.32 12 9 C18.85024615 10.37004923 25.14975385 10.37004923 32 9 C32 8.34 32 7.68 32 7 C33.98 6.67 35.96 6.34 38 6 C33.61084553 10.77721996 28.05063862 12.1800913 21.75 12.5625 C14.18896977 12.36213797 7.26745595 8.89232373 1.65234375 3.921875 C0 2 0 2 0 0 Z " fill="#8AD3AF" transform="translate(28,65)"/>
<path d="M0 0 C1.1240625 0.26425781 2.248125 0.52851563 3.40625 0.80078125 C6.03597202 1.55450208 8.21605585 2.19539498 10.5 3.6875 C10.83 4.6775 11.16 5.6675 11.5 6.6875 C12.49 6.6875 13.48 6.6875 14.5 6.6875 C17.5 10.02083333 17.5 10.02083333 17.5 12.6875 C18.16 12.6875 18.82 12.6875 19.5 12.6875 C19.83 13.6775 20.16 14.6675 20.5 15.6875 C21.16 16.3475 21.82 17.0075 22.5 17.6875 C22.17 18.3475 21.84 19.0075 21.5 19.6875 C20.84 19.6875 20.18 19.6875 19.5 19.6875 C19.108125 18.800625 18.71625 17.91375 18.3125 17 C14.48632069 10.00732747 8.87113505 6.35564325 1.5 3.6875 C-2.83381462 2.92040361 -7.10566216 2.6875 -11.5 2.6875 C-11.17 1.6975 -10.84 0.7075 -10.5 -0.3125 C-6.90983083 -1.98057388 -3.71009251 -0.89774028 0 0 Z " fill="#64C5E9" transform="translate(56.5,18.3125)"/>
<path d="M0 0 C0 0.99 0 1.98 0 3 C0.99 3 1.98 3 3 3 C3 3.66 3 4.32 3 5 C2.34 5 1.68 5 1 5 C1 5.99 1 6.98 1 8 C1.66 8.33 2.32 8.66 3 9 C0.28817788 11.60334924 -0.89133813 11.99456691 -4.75 12.1875 C-6.35875 12.0946875 -6.35875 12.0946875 -8 12 C-7.34 10.68 -6.68 9.36 -6 8 C-6.66 8 -7.32 8 -8 8 C-8 6.68 -8 5.36 -8 4 C-2.88888889 0 -2.88888889 0 0 0 Z " fill="#F1F9CB" transform="translate(56,37)"/>
<path d="M0 0 C1.98 0.66 3.96 1.32 6 2 C6 2.66 6 3.32 6 4 C7.32 4.33 8.64 4.66 10 5 C9.01 5.495 9.01 5.495 8 6 C5.375 5.0625 5.375 5.0625 3 4 C5.475 5.98 5.475 5.98 8 8 C7.34 8.66 6.68 9.32 6 10 C6 9.34 6 8.68 6 8 C3.50935112 7.31292445 1.62113708 7 -1 7 C-1.33 7.66 -1.66 8.32 -2 9 C-1.01 8.67 -0.02 8.34 1 8 C1.99 9.485 1.99 9.485 3 11 C0.03 10.505 0.03 10.505 -3 10 C-3 11.65 -3 13.3 -3 15 C-1.68 15.66 -0.36 16.32 1 17 C1 17.66 1 18.32 1 19 C-1.31 19 -3.62 19 -6 19 C-5.64134677 11.58783319 -3.64079463 6.43520528 0 0 Z " fill="#D4ED66" transform="translate(12,25)"/>
<path d="M0 0 C0 0.99 0 1.98 0 3 C-11.73760551 9.22093092 -20.50981461 12.20384856 -34 11 C-34.66 10.34 -35.32 9.68 -36 9 C-35.09121094 8.98582031 -34.18242188 8.97164062 -33.24609375 8.95703125 C-21.84506089 8.52437667 -9.56467781 0 0 0 Z " fill="#2BB4D6" transform="translate(78,86)"/>
<path d="M0 0 C0.99 0 1.98 0 3 0 C3.33 2.64 3.66 5.28 4 8 C6.97 8 9.94 8 13 8 C12.67 7.01 12.34 6.02 12 5 C12.4375 2.3125 12.4375 2.3125 13 0 C13.66 0 14.32 0 15 0 C15.09765625 6.15234375 15.09765625 6.15234375 15 8 C13.04372175 9.95627825 9.37347081 9.36431953 6.6875 9.5 C0.77184674 9.76125264 0.77184674 9.76125264 -5 11 C-5.12375 9.865625 -5.2475 8.73125 -5.375 7.5625 C-5.58125 6.386875 -5.7875 5.21125 -6 4 C-6.66 3.67 -7.32 3.34 -8 3 C-7.01 2.67 -6.02 2.34 -5 2 C-5 3.65 -5 5.3 -5 7 C-4.34 7 -3.68 7 -3 7 C-3.33 5.02 -3.66 3.04 -4 1 C-3.01 1 -2.02 1 -1 1 C-0.67 2.65 -0.34 4.3 0 6 C0.66 4.68 1.32 3.36 2 2 C1.34 2 0.68 2 0 2 C0 1.34 0 0.68 0 0 Z " fill="#5FC5B4" transform="translate(42,7)"/>
<path d="M0 0 C0.66 0.33 1.32 0.66 2 1 C1.67 2.98 1.34 4.96 1 7 C1.66 7 2.32 7 3 7 C3.33 5.02 3.66 3.04 4 1 C6 4 6 4 6 7 C6.33 5.35 6.66 3.7 7 2 C11 2 11 2 13 3 C13 4.65 13 6.3 13 8 C13.66 8.33 14.32 8.66 15 9 C13.2012042 10.7987958 10.56355245 10.5043904 8.125 10.75 C7.05507813 10.86859375 5.98515625 10.9871875 4.8828125 11.109375 C2 11 2 11 0.09765625 9.77734375 C-1.89486862 6.55101345 -0.64974213 3.60311544 0 0 Z " fill="#6FCBA9" transform="translate(40,84)"/>
<path d="M0 0 C1.32 0.66 2.64 1.32 4 2 C4 2.66 4 3.32 4 4 C3.01 4 2.02 4 1 4 C0.67 5.32 0.34 6.64 0 8 C-0.66 8 -1.32 8 -2 8 C-2 9.32 -2 10.64 -2 12 C-3.65 12.33 -5.3 12.66 -7 13 C-7 13.66 -7 14.32 -7 15 C-11.15267176 18.11450382 -11.15267176 18.11450382 -14.3125 17.6875 C-14.869375 17.460625 -15.42625 17.23375 -16 17 C-15.67 16.34 -15.34 15.68 -15 15 C-14.34 15 -13.68 15 -13 15 C-13 14.34 -13 13.68 -13 13 C-12.01 12.67 -11.02 12.34 -10 12 C-9.67 11.34 -9.34 10.68 -9 10 C-8.01 10 -7.02 10 -6 10 C-6 9.34 -6 8.68 -6 8 C-5.34 8 -4.68 8 -4 8 C-4 7.34 -4 6.68 -4 6 C-3.34 6 -2.68 6 -2 6 C-1.855625 5.195625 -1.71125 4.39125 -1.5625 3.5625 C-1 1 -1 1 0 0 Z " fill="#A4DBF1" transform="translate(76,62)"/>
<path d="M0 0 C1.875 0.125 1.875 0.125 4 1 C5.48274765 4.03289291 6.22189883 5.9737179 5.5 9.3125 C3.31134979 11.77473149 1.18647425 11.72291528 -2 12 C-1.67 11.01 -1.34 10.02 -1 9 C0.32 9 1.64 9 3 9 C3 8.34 3 7.68 3 7 C1.02 7.66 -0.96 8.32 -3 9 C-3.99 8.01 -4.98 7.02 -6 6 C-5.34 4.68 -4.68 3.36 -4 2 C-2.68 2 -1.36 2 0 2 C0 1.34 0 0.68 0 0 Z " fill="#86D29B" transform="translate(87,30)"/>
<path d="M0 0 C2.97 0.495 2.97 0.495 6 1 C6.33 5.62 6.66 10.24 7 15 C4.69 14.67 2.38 14.34 0 14 C0 13.34 0 12.68 0 12 C1.32 11.67 2.64 11.34 4 11 C2.02 11 0.04 11 -2 11 C-2 12.65 -2 14.3 -2 16 C-4 14 -4 14 -4.1953125 11.1796875 C-4.17210937 10.08914062 -4.14890625 8.99859375 -4.125 7.875 C-4.10695313 6.77929688 -4.08890625 5.68359375 -4.0703125 4.5546875 C-4.04710937 3.71164063 -4.02390625 2.86859375 -4 2 C-3.67 2 -3.34 2 -3 2 C-3 4.64 -3 7.28 -3 10 C-2.34 10 -1.68 10 -1 10 C-1 9.34 -1 8.68 -1 8 C0.65 8 2.3 8 4 8 C4.33 6.35 4.66 4.7 5 3 C2.03 2.505 2.03 2.505 -1 2 C-0.67 1.34 -0.34 0.68 0 0 Z " fill="#DDF060" transform="translate(9,44)"/>
<path d="M0 0 C1.32 0 2.64 0 4 0 C4 1.32 4 2.64 4 4 C4.99 4.33 5.98 4.66 7 5 C3.30827405 8.53790403 -0.09390595 8.59115883 -5 9 C-6.35439668 6.29120665 -6.06501451 3.99066732 -6 1 C-3.03 1.495 -3.03 1.495 0 2 C0 3.32 0 4.64 0 6 C0.66 5.67 1.32 5.34 2 5 C1.34 3.35 0.68 1.7 0 0 Z " fill="#7DCFA0" transform="translate(61,84)"/>
<path d="M0 0 C4.455 0.99 4.455 0.99 9 2 C8.34 2.66 7.68 3.32 7 4 C7.66 4.33 8.32 4.66 9 5 C9 6.65 9 8.3 9 10 C6 11 6 11 3 10 C3 10.66 3 11.32 3 12 C2.34 12 1.68 12 1 12 C0.67 8.04 0.34 4.08 0 0 Z " fill="#74CCA7" transform="translate(5,42)"/>
<path d="M0 0 C0.5534764 2.07553648 1 3.84365964 1 6 C1.66 4.68 2.32 3.36 3 2 C3.66 2 4.32 2 5 2 C4.67 3.98 4.34 5.96 4 8 C4.66 7.67 5.32 7.34 6 7 C6.33 6.01 6.66 5.02 7 4 C7.66 4 8.32 4 9 4 C8.67 6.64 8.34 9.28 8 12 C4.37673261 13.2077558 3.35853631 12.54311128 0 11 C0 10.34 0 9.68 0 9 C-0.99 8.34 -1.98 7.68 -3 7 C-3 6.01 -3 5.02 -3 4 C-2.34 3.67 -1.68 3.34 -1 3 C-0.67 2.01 -0.34 1.02 0 0 Z " fill="#42BBC8" transform="translate(30,80)"/>
<path d="M0 0 C3 0 3 0 4.5625 1.4375 C5.036875 1.953125 5.51125 2.46875 6 3 C6.66 3.33 7.32 3.66 8 4 C5.03 7.3 2.06 10.6 -1 14 C-2.32 13.67 -3.64 13.34 -5 13 C-4.67 12.34 -4.34 11.68 -4 11 C-3.34 11 -2.68 11 -2 11 C-2.495 10.54625 -2.99 10.0925 -3.5 9.625 C-5 8 -5 8 -5 6 C-4.01 6 -3.02 6 -2 6 C-1.67 6.66 -1.34 7.32 -1 8 C-0.67 7.67 -0.34 7.34 0 7 C-0.99 6.01 -1.98 5.02 -3 4 C-1.68 4 -0.36 4 1 4 C1.66 4.66 2.32 5.32 3 6 C2.2575 5.071875 2.2575 5.071875 1.5 4.125 C0 2 0 2 0 0 Z " fill="#53C1BD" transform="translate(79,70)"/>
<path d="M0 0 C0.66 0 1.32 0 2 0 C1.67 2.97 1.34 5.94 1 9 C3.31 9.66 5.62 10.32 8 11 C8 12.32 8 13.64 8 15 C7.45601562 14.68933594 6.91203125 14.37867188 6.3515625 14.05859375 C2.84564287 12.48034754 -0.75301201 12.18289512 -4.5390625 11.66015625 C-7 11 -7 11 -9 8 C-6.36 7.67 -3.72 7.34 -1 7 C-0.67 4.69 -0.34 2.38 0 0 Z " fill="#28B3D8" transform="translate(59,8)"/>
<path d="M0 0 C0.99 0.33 1.98 0.66 3 1 C2.01 2.485 2.01 2.485 1 4 C0.34 4 -0.32 4 -1 4 C-1 4.66 -1 5.32 -1 6 C2.0745356 5.2236068 2.0745356 5.2236068 4 3 C4 6 4 6 2.5 7.6875 C2.005 8.120625 1.51 8.55375 1 9 C1.99 8.67 2.98 8.34 4 8 C4.33 7.34 4.66 6.68 5 6 C5.66 6 6.32 6 7 6 C6.6875 7.9375 6.6875 7.9375 6 10 C5.01 10.33 4.02 10.66 3 11 C1.33289654 12.49985609 1.33289654 12.49985609 0 14 C-4.0173913 8.76521739 -4.0173913 8.76521739 -3.9375 5.25 C-3 3 -3 3 0 1 C0 0.67 0 0.34 0 0 Z " fill="#63C7B1" transform="translate(80,20)"/>
<path d="M0 0 C2.18043828 2.18043828 2.56240225 3.02433527 3 6 C2.5625 8.25 2.5625 8.25 2 10 C3.32 10.33 4.64 10.66 6 11 C6 11.66 6 12.32 6 13 C2.7 13 -0.6 13 -4 13 C-4 12.01 -4 11.02 -4 10 C-3.01 10 -2.02 10 -1 10 C-1.20625 9.278125 -1.4125 8.55625 -1.625 7.8125 C-2.05952211 4.55358415 -1.41680669 2.91695496 0 0 Z " fill="#E1F36A" transform="translate(34,52)"/>
<path d="M0 0 C2.97 0.99 5.94 1.98 9 3 C8.67 5.97 8.34 8.94 8 12 C9.32 12.66 10.64 13.32 12 14 C10.02 14 8.04 14 6 14 C4.53273202 10.18510326 5.56663581 7.70988378 7 4 C6.34 4 5.68 4 5 4 C4.87625 4.61875 4.7525 5.2375 4.625 5.875 C4 8 4 8 2 10 C0.7922442 6.37673261 1.45688872 5.35853631 3 2 C2.34 2 1.68 2 1 2 C0.67 3.32 0.34 4.64 0 6 C-0.99 6 -1.98 6 -3 6 C-2.67 5.34 -2.34 4.68 -2 4 C-1.34 4 -0.68 4 0 4 C0 2.68 0 1.36 0 0 Z " fill="#DBEF62" transform="translate(32,80)"/>
<path d="M0 0 C1.43931117 0.45261358 2.87638999 0.91232979 4.3125 1.375 C5.11300781 1.63023438 5.91351563 1.88546875 6.73828125 2.1484375 C9 3 9 3 12 5 C11.67 7.64 11.34 10.28 11 13 C10.01 12.67 9.02 12.34 8 12 C8.66 11.67 9.32 11.34 10 11 C8.515 8.03 8.515 8.03 7 5 C6.67 5.99 6.34 6.98 6 8 C5.34 8 4.68 8 4 8 C4 7.34 4 6.68 4 6 C3.34 6 2.68 6 2 6 C1.34 4.02 0.68 2.04 0 0 Z " fill="#E0F473" transform="translate(59,44)"/>
<path d="M0 0 C1.5625 1 1.5625 1 3 3 C2.96726452 5.76614782 2.49404328 8.26030547 2 11 C-0.60582371 11.93065133 -1.64198224 12.14917407 -4.25 11.0625 C-4.8275 10.711875 -5.405 10.36125 -6 10 C-3 9 -3 9 0 10 C0 9.34 0 8.68 0 8 C-1.65 7.67 -3.3 7.34 -5 7 C-3.68 6.34 -2.36 5.68 -1 5 C-2.65 4.67 -4.3 4.34 -6 4 C-4.60804085 1.2160817 -2.84424221 1.02101003 0 0 Z " fill="#57C3B9" transform="translate(92,41)"/>
<path d="M0 0 C0.103125 0.598125 0.20625 1.19625 0.3125 1.8125 C1.08876455 4.28243264 2.07088921 5.32251235 4 7 C-0.75 10 -0.75 10 -3 10 C-3 9.34 -3 8.68 -3 8 C-3.99 8 -4.98 8 -6 8 C-6 6.35 -6 4.7 -6 3 C-5.38125 3.66 -4.7625 4.32 -4.125 5 C-2.24362573 7.2284549 -2.24362573 7.2284549 0 7 C-0.66 6.67 -1.32 6.34 -2 6 C-2 4.68 -2 3.36 -2 2 C-3.32 1.34 -4.64 0.68 -6 0 C-3.50907189 -1.24546405 -2.58919267 -0.7767578 0 0 Z " fill="#BAE477" transform="translate(74,79)"/>
<path d="M0 0 C1.67542976 0.28604898 3.34385343 0.61781233 5 1 C4.67 1.66 4.34 2.32 4 3 C2.68 3 1.36 3 0 3 C0 3.99 0 4.98 0 6 C0.66 6.33 1.32 6.66 2 7 C2.33 7.66 2.66 8.32 3 9 C4.65 8.67 6.3 8.34 8 8 C7 10 7 10 4 12 C4.33 13.32 4.66 14.64 5 16 C1.28865795 12.8005672 -0.42930118 9.6294281 -2 5 C-1.75908717 2.71132815 -1.61569143 1.61569143 0 0 Z " fill="#D1EC68" transform="translate(9,60)"/>
<path d="M0 0 C0.33 0.66 0.66 1.32 1 2 C1.66 2 2.32 2 3 2 C3 2.99 3 3.98 3 5 C4.65 5 6.3 5 8 5 C8 4.34 8 3.68 8 3 C9.32 3 10.64 3 12 3 C12 3.99 12 4.98 12 6 C6.91913204 6.84681133 2.15171623 7.09038099 -3 7 C-2.625 4.0625 -2.625 4.0625 -2 1 C-1.34 0.67 -0.68 0.34 0 0 Z " fill="#FAFDC6" transform="translate(46,52)"/>
<path d="M0 0 C0 0.66 0 1.32 0 2 C0.66 2 1.32 2 2 2 C1 5 1 5 -1 7 C-1 5.02 -1 3.04 -1 1 C-1.99 1 -2.98 1 -4 1 C-4 1.66 -4 2.32 -4 3 C-3.34 3 -2.68 3 -2 3 C-2.33 4.65 -2.66 6.3 -3 8 C-3.66 7.67 -4.32 7.34 -5 7 C-5 5.35 -5 3.7 -5 2 C-5.99 2 -6.98 2 -8 2 C-7.67 3.98 -7.34 5.96 -7 8 C-7.66 8 -8.32 8 -9 8 C-9 6.35 -9 4.7 -9 3 C-9.99 2.67 -10.98 2.34 -12 2 C-7.82262526 0.40861915 -4.46839215 -0.21278058 0 0 Z " fill="#CFEB69" transform="translate(46,6)"/>
<path d="M0 0 C0.99 0 1.98 0 3 0 C3.33 0.66 3.66 1.32 4 2 C4.33 1.34 4.66 0.68 5 0 C7.53730112 0 9.52589282 0.36152073 12 1 C12.33 2.32 12.66 3.64 13 5 C10.2780754 6.3609623 8.8168043 5.70366248 5.875 5.0625 C4.96492188 4.86785156 4.05484375 4.67320313 3.1171875 4.47265625 C2.41851562 4.31667969 1.71984375 4.16070312 1 4 C0.67 2.68 0.34 1.36 0 0 Z " fill="#E8F585" transform="translate(60,60)"/>
<path d="M0 0 C0.33 0 0.66 0 1 0 C1.05416188 1.60379341 1.09286638 3.20811406 1.125 4.8125 C1.14820312 5.70582031 1.17140625 6.59914063 1.1953125 7.51953125 C1 10 1 10 -1 13 C-1 11.02 -1 9.04 -1 7 C-1.86625 7.2784375 -1.86625 7.2784375 -2.75 7.5625 C-5.20692525 8.04023546 -6.64397534 7.75729364 -9 7 C-9 5.35 -9 3.7 -9 2 C-6.69 2 -4.38 2 -2 2 C-2 2.66 -2 3.32 -2 4 C-3.65 4 -5.3 4 -7 4 C-4.03 4.495 -4.03 4.495 -1 5 C-0.67 3.35 -0.34 1.7 0 0 Z " fill="#DCF060" transform="translate(94,47)"/>
<path d="M0 0 C0 0.66 0 1.32 0 2 C-1.32 2 -2.64 2 -4 2 C-3.67 2.66 -3.34 3.32 -3 4 C-1.05925139 3.72382467 -1.05925139 3.72382467 1 3 C1.66 2.01 2.32 1.02 3 0 C4 1 4 1 4.0625 4.5625 C4.041875 5.696875 4.02125 6.83125 4 8 C3.34 7.01 2.68 6.02 2 5 C0.8553125 5.495 0.8553125 5.495 -0.3125 6 C-3 7 -3 7 -6 7 C-6.33 5.02 -6.66 3.04 -7 1 C-4 0 -4 0 0 0 Z " fill="#D4ED66" transform="translate(90,37)"/>
<path d="M0 0 C0 0.99 0 1.98 0 3 C-0.99 3.495 -0.99 3.495 -2 4 C-2 4.99 -2 5.98 -2 7 C-4.64 7.99 -7.28 8.98 -10 10 C-9.67 8.68 -9.34 7.36 -9 6 C-9.33 5.34 -9.66 4.68 -10 4 C-3.375 0 -3.375 0 0 0 Z " fill="#53C1DB" transform="translate(42,19)"/>
<path d="M0 0 C0.66 0.33 1.32 0.66 2 1 C2 1.66 2 2.32 2 3 C1.01 3.495 1.01 3.495 0 4 C0.33 4.33 0.66 4.66 1 5 C1.99 4.01 2.98 3.02 4 2 C4 3.32 4 4.64 4 6 C3.34 6.66 2.68 7.32 2 8 C2 8.66 2 9.32 2 10 C-1.24208567 9.64950425 -2.61527704 9.43778819 -4.8125 6.9375 C-5.204375 6.298125 -5.59625 5.65875 -6 5 C-5.195625 4.54625 -4.39125 4.0925 -3.5625 3.625 C-0.91143428 2.25274335 -0.91143428 2.25274335 0 0 Z " fill="#6DCAAB" transform="translate(24,76)"/>
<path d="M0 0 C2.97 0.33 5.94 0.66 9 1 C9 2.32 9 3.64 9 5 C5.88228073 6.60339848 4.60988311 7.18974141 1.1875 6.125 C0.465625 5.75375 -0.25625 5.3825 -1 5 C-0.67 3.35 -0.34 1.7 0 0 Z " fill="#F4FBDA" transform="translate(45,48)"/>
<path d="M0 0 C3.96 0 7.92 0 12 0 C11.01 0.495 11.01 0.495 10 1 C10 3.64 10 6.28 10 9 C9.01 8.67 8.02 8.34 7 8 C7.66 6.35 8.32 4.7 9 3 C8.34 3 7.68 3 7 3 C6.67 4.98 6.34 6.96 6 9 C5.34 8.67 4.68 8.34 4 8 C4.33 6.35 4.66 4.7 5 3 C4.34 3 3.68 3 3 3 C3 2.34 3 1.68 3 1 C2.01 0.67 1.02 0.34 0 0 Z " fill="#6CC9AC" transform="translate(43,5)"/>
<path d="M0 0 C0.69649658 0.01571045 1.39299316 0.0314209 2.1105957 0.04760742 C2.86791992 0.05727539 3.62524414 0.06694336 4.40551758 0.0769043 C5.19120117 0.10204102 5.97688477 0.12717773 6.78637695 0.15307617 C7.98230469 0.17337891 7.98230469 0.17337891 9.20239258 0.1940918 C11.16817663 0.22940528 13.13361278 0.2832117 15.09887695 0.34057617 C15.09887695 1.33057617 15.09887695 2.32057617 15.09887695 3.34057617 C8.49887695 3.34057617 1.89887695 3.34057617 -4.90112305 3.34057617 C-1.90112305 0.34057617 -1.90112305 0.34057617 0 0 Z " fill="#20B1DD" transform="translate(42.901123046875,2.659423828125)"/>
<path d="M0 0 C0.94875 0.04125 1.8975 0.0825 2.875 0.125 C4 7.875 4 7.875 2.875 10.125 C1.225 10.125 -0.425 10.125 -2.125 10.125 C-1.465 9.465 -0.805 8.805 -0.125 8.125 C-1.775 6.805 -3.425 5.485 -5.125 4.125 C-3.145 4.125 -1.165 4.125 0.875 4.125 C-1.105 3.465 -3.085 2.805 -5.125 2.125 C-3.125 0.125 -3.125 0.125 0 0 Z " fill="#5BC4B6" transform="translate(90.125,53.875)"/>
<path d="M0 0 C4.29 0 8.58 0 13 0 C13 0.33 13 0.66 13 1 C11.02 1.66 9.04 2.32 7 3 C6.67 4.65 6.34 6.3 6 8 C5.34 7.67 4.68 7.34 4 7 C4 5.68 4 4.36 4 3 C3.34 4.32 2.68 5.64 2 7 C1.34 7 0.68 7 0 7 C0 4.69 0 2.38 0 0 Z " fill="#C7E86F" transform="translate(41,84)"/>
<path d="M0 0 C1.4606285 2.64738916 2 3.89448334 2 7 C-0.95664519 8.4783226 -3.74229737 8.06032783 -7 8 C-7 7.01 -7 6.02 -7 5 C-5.68 4.67 -4.36 4.34 -3 4 C-3.33 3.34 -3.66 2.68 -4 2 C-2.68 1.34 -1.36 0.68 0 0 Z " fill="#97D88F" transform="translate(16,58)"/>
<path d="M0 0 C2.79872437 2.52788007 4.45773019 4.20411134 5 8 C4.01 7.67 3.02 7.34 2 7 C2 7.66 2 8.32 2 9 C0.68 9 -0.64 9 -2 9 C-2.33 9.99 -2.66 10.98 -3 12 C-3.33 11.34 -3.66 10.68 -4 10 C-2 7 -2 7 1 6 C1.33 5.01 1.66 4.02 2 3 C1.34 3 0.68 3 0 3 C-0.33 3.99 -0.66 4.98 -1 6 C-3.0625 6.6875 -3.0625 6.6875 -5 7 C-3.88820837 3.66462511 -2.52588702 2.36292656 0 0 Z " fill="#D8EE63" transform="translate(85,23)"/>
<path d="M0 0 C1.0625 1.8125 1.0625 1.8125 2 4 C1.67 4.99 1.34 5.98 1 7 C0.34 7 -0.32 7 -1 7 C-1 7.66 -1 8.32 -1 9 C-1.66 9 -2.32 9 -3 9 C-3 9.66 -3 10.32 -3 11 C-3.99 11 -4.98 11 -6 11 C-6.33 11.99 -6.66 12.98 -7 14 C-7.66 13.34 -8.32 12.68 -9 12 C-8.04578192 10.85073734 -7.08647955 9.70569459 -6.125 8.5625 C-5.32449219 7.60537109 -5.32449219 7.60537109 -4.5078125 6.62890625 C-3 5 -3 5 -1 4 C-0.34786708 1.97536745 -0.34786708 1.97536745 0 0 Z " fill="#43BCC8" transform="translate(73,61)"/>
<path d="M0 0 C0 0.66 0 1.32 0 2 C-3.50711619 3.16903873 -6.36782386 3.16839619 -10.0625 3.1875 C-11.31160156 3.20167969 -12.56070313 3.21585937 -13.84765625 3.23046875 C-17 3 -17 3 -19 1 C-16.58343806 0.83168225 -14.16676951 0.66528738 -11.75 0.5 C-11.06808594 0.45230469 -10.38617188 0.40460938 -9.68359375 0.35546875 C-6.44268497 0.13521281 -3.2506634 0 0 0 Z " fill="#1FB0DE" transform="translate(61,94)"/>
<path d="M0 0 C-0.33 1.98 -0.66 3.96 -1 6 C-2.32 6 -3.64 6 -5 6 C-5.33 6.99 -5.66 7.98 -6 9 C-6.33 8.01 -6.66 7.02 -7 6 C-5.68 5.34 -4.36 4.68 -3 4 C-4.65 4.33 -6.3 4.66 -8 5 C-8.33 4.01 -8.66 3.02 -9 2 C-3.375 0 -3.375 0 0 0 Z " fill="#62C6B3" transform="translate(19,65)"/>
<path d="M0 0 C6.625 -0.25 6.625 -0.25 10 2 C10 2.66 10 3.32 10 4 C6.37 4 2.74 4 -1 4 C-0.67 2.68 -0.34 1.36 0 0 Z " fill="#F9FC98" transform="translate(60,55)"/>
<path d="M0 0 C0.66 0.33 1.32 0.66 2 1 C1.67 2.98 1.34 4.96 1 7 C1.66 7 2.32 7 3 7 C3.33 5.02 3.66 3.04 4 1 C6.1519437 4.22791555 6.20086443 5.28400809 6 9 C4.02 9 2.04 9 0 9 C-1.10844919 5.67465243 -0.84454356 3.37817425 0 0 Z " fill="#4FC0BF" transform="translate(40,84)"/>
<path d="M0 0 C0.99 0.33 1.98 0.66 3 1 C2.8125 2.8125 2.8125 2.8125 2 5 C-0.3125 6.8125 -0.3125 6.8125 -3 8 C-5.3125 7.6875 -5.3125 7.6875 -7 7 C-6.67 6.34 -6.34 5.68 -6 5 C-5.34 5 -4.68 5 -4 5 C-4 4.34 -4 3.68 -4 3 C-3.01 2.67 -2.02 2.34 -1 2 C-0.67 1.34 -0.34 0.68 0 0 Z " fill="#84D0ED" transform="translate(67,72)"/>
<path d="M0 0 C0 0.99 0 1.98 0 3 C-1.32 2.67 -2.64 2.34 -4 2 C-4 2.66 -4 3.32 -4 4 C-2.02 4 -0.04 4 2 4 C1.67 4.66 1.34 5.32 1 6 C-0.65 6 -2.3 6 -4 6 C-4.33 6.66 -4.66 7.32 -5 8 C-5.66 8 -6.32 8 -7 8 C-6.67 5.69 -6.34 3.38 -6 1 C-4.02 0.67 -2.04 0.34 0 0 Z " fill="#57C3B9" transform="translate(13,54)"/>
<path d="M0 0 C0.99 0 1.98 0 3 0 C3.14285714 7.42857143 3.14285714 7.42857143 2 11 C1.01 11 0.02 11 -1 11 C-0.67 7.37 -0.34 3.74 0 0 Z " fill="#8BD2EE" transform="translate(79,48)"/>
<path d="M0 0 C1.32 0 2.64 0 4 0 C4 1.32 4 2.64 4 4 C4.99 4.33 5.98 4.66 7 5 C5.25 6.5625 5.25 6.5625 3 8 C0.75 7.6875 0.75 7.6875 -1 7 C-1.33 5.35 -1.66 3.7 -2 2 C-1.34 2 -0.68 2 0 2 C0 3.32 0 4.64 0 6 C0.66 5.67 1.32 5.34 2 5 C1.34 3.35 0.68 1.7 0 0 Z " fill="#41BBC8" transform="translate(61,84)"/>
<path d="M0 0 C0.598125 0.185625 1.19625 0.37125 1.8125 0.5625 C4.16408762 1.22093687 4.16408762 1.22093687 7 0 C7 1.32 7 2.64 7 4 C4.29120665 5.35439668 1.99066732 5.06501451 -1 5 C-0.67 3.35 -0.34 1.7 0 0 Z " fill="#E3F48F" transform="translate(42,60)"/>
<path d="M0 0 C1.20628008 2.33214148 2.1654738 4.49642139 3 7 C3.66 7 4.32 7 5 7 C5.33 6.34 5.66 5.68 6 5 C6 5.99 6 6.98 6 8 C2.7 8.33 -0.6 8.66 -4 9 C-4.33 7.68 -4.66 6.36 -5 5 C-4.67 5.66 -4.34 6.32 -4 7 C-3.34 7 -2.68 7 -2 7 C-1.34 4.69 -0.68 2.38 0 0 Z " fill="#ACE076" transform="translate(34,35)"/>
<path d="M0 0 C0.556875 0.309375 1.11375 0.61875 1.6875 0.9375 C3.97019863 2.0942205 3.97019863 2.0942205 6.5 2.5 C8.97517916 2.99503583 10.80504887 3.78058271 13 5 C13 5.66 13 6.32 13 7 C8.33333333 5.66666667 3.66666667 4.33333333 -1 3 C-0.67 2.01 -0.34 1.02 0 0 Z " fill="#62C5E9" transform="translate(50,25)"/>
<path d="M0 0 C2.02045442 0.60183749 4.02111039 1.27306096 6 2 C6.33 2.66 6.66 3.32 7 4 C5.6875 6.625 5.6875 6.625 4 9 C3.34 9 2.68 9 2 9 C2 6 2 6 4 4 C2.35 5.32 0.7 6.64 -1 8 C-0.67 5.36 -0.34 2.72 0 0 Z " fill="#4BBEC2" transform="translate(66,10)"/>
<path d="M0 0 C0.66 0.66 1.32 1.32 2 2 C1.01 2.33 0.02 2.66 -1 3 C-1 3.99 -1 4.98 -1 6 C-0.34 6 0.32 6 1 6 C1.66 4.68 2.32 3.36 3 2 C3.66 2.66 4.32 3.32 5 4 C3.68 5.65 2.36 7.3 1 9 C-0.65 7.68 -2.3 6.36 -4 5 C-2.68 3.35 -1.36 1.7 0 0 Z " fill="#D9EE63" transform="translate(69,13)"/>
<path d="M0 0 C3.36525621 0.46417327 5.40608501 1.86928411 8 4 C7.67 4.99 7.34 5.98 7 7 C3.63408134 5.55746343 1.48952921 3.66735273 -1 1 C-0.67 0.67 -0.34 0.34 0 0 Z " fill="#5FC4E9" transform="translate(29,72)"/>
<path d="M0 0 C0.99 0.33 1.98 0.66 3 1 C2.67 2.65 2.34 4.3 2 6 C3.32 6 4.64 6 6 6 C6 6.66 6 7.32 6 8 C3.03 8 0.06 8 -3 8 C-3 6.35 -3 4.7 -3 3 C-2.01 4.485 -2.01 4.485 -1 6 C-0.67 4.02 -0.34 2.04 0 0 Z " fill="#DFF05F" transform="translate(49,7)"/>
<path d="M0 0 C0.66 0 1.32 0 2 0 C1.67 2.64 1.34 5.28 1 8 C-2.62326739 9.2077558 -3.64146369 8.54311128 -7 7 C-6.34 6.34 -5.68 5.68 -5 5 C-4.01 5.33 -3.02 5.66 -2 6 C-1.34 4.02 -0.68 2.04 0 0 Z " fill="#7DCFA0" transform="translate(37,84)"/>
<path d="M0 0 C0.66 0 1.32 0 2 0 C2 0.99 2 1.98 2 3 C1.01 3.66 0.02 4.32 -1 5 C-1.33 5.680625 -1.66 6.36125 -2 7.0625 C-3 9 -3 9 -6 10 C-6 8.33333333 -6 6.66666667 -6 5 C-5.01 4.67 -4.02 4.34 -3 4 C-1.99357052 2.67151309 -0.99307821 1.33849671 0 0 Z " fill="#66C6E9" transform="translate(30,24)"/>
<path d="M0 0 C3.3 0.66 6.6 1.32 10 2 C10 2.66 10 3.32 10 4 C10.66 4.33 11.32 4.66 12 5 C7.28596212 4.52060632 3.33420699 4.03165952 -1 2 C-0.67 1.34 -0.34 0.68 0 0 Z " fill="#38B8CE" transform="translate(32,92)"/>
<path d="M0 0 C4.75 0.75 4.75 0.75 7 3 C5.35 2.67 3.7 2.34 2 2 C2.95865509 4.33075929 2.95865509 4.33075929 6 6 C2.86650268 7.04449911 2.01031744 6.93423645 -1 6 C-0.67 4.02 -0.34 2.04 0 0 Z " fill="#4ABEC2" transform="translate(9,35)"/>
<path d="M0 0 C1.65 0.33 3.3 0.66 5 1 C5.6875 3.25 5.6875 3.25 6 6 C4.5625 8.3125 4.5625 8.3125 3 10 C3.33 8.35 3.66 6.7 4 5 C3.34 5 2.68 5 2 5 C2 4.01 2 3.02 2 2 C1.01 2.33 0.02 2.66 -1 3 C-0.67 2.01 -0.34 1.02 0 0 Z " fill="#80D09E" transform="translate(59,6)"/>
<path d="M0 0 C0.99 0 1.98 0 3 0 C3 0.66 3 1.32 3 2 C5.64 1.67 8.28 1.34 11 1 C6.63228707 3.91180862 3.44846409 4.12438648 -1.75 4.0625 C-2.73484375 4.05347656 -3.7196875 4.04445313 -4.734375 4.03515625 C-5.48203125 4.02355469 -6.2296875 4.01195313 -7 4 C-7 3.67 -7 3.34 -7 3 C-4.36 2.67 -1.72 2.34 1 2 C0.67 1.34 0.34 0.68 0 0 Z " fill="#D0EB69" transform="translate(53,91)"/>
<path d="M0 0 C0 0.66 0 1.32 0 2 C-3.96 3.98 -3.96 3.98 -8 6 C-8.66 5.34 -9.32 4.68 -10 4 C-3.375 0 -3.375 0 0 0 Z " fill="#70C9EB" transform="translate(65,68)"/>
<path d="M0 0 C0 0.66 0 1.32 0 2 C-5.445 3.485 -5.445 3.485 -11 5 C-11 4.01 -11 3.02 -11 2 C-7.17679443 0.57741188 -4.08718695 -0.24042276 0 0 Z " fill="#62C4E9" transform="translate(47,27)"/>
<path d="M0 0 C2.31 0 4.62 0 7 0 C7 1.32 7 2.64 7 4 C4.69 4 2.38 4 0 4 C0 2.68 0 1.36 0 0 Z " fill="#F7FB94" transform="translate(51,60)"/>
<path d="M0 0 C0.33 0.99 0.66 1.98 1 3 C1.66 3.33 2.32 3.66 3 4 C0.28817788 6.60334924 -0.89133813 6.99456691 -4.75 7.1875 C-5.8225 7.125625 -6.895 7.06375 -8 7 C-6.75 5.5 -6.75 5.5 -5 4 C-3.68 4 -2.36 4 -1 4 C-0.67 2.68 -0.34 1.36 0 0 Z " fill="#F0FA52" transform="translate(56,42)"/>
<path d="M0 0 C0.99 0 1.98 0 3 0 C1.73058503 3.91402949 0.48832306 5.79072873 -3 8 C-3.33 6.35 -3.66 4.7 -4 3 C-3.01 3 -2.02 3 -1 3 C-0.67 2.01 -0.34 1.02 0 0 Z " fill="#35B7DE" transform="translate(77,66)"/>
<path d="M0 0 C0.66 0 1.32 0 2 0 C2 0.66 2 1.32 2 2 C2.66 2 3.32 2 4 2 C4 2.66 4 3.32 4 4 C4.66 4.33 5.32 4.66 6 5 C3.69 5.33 1.38 5.66 -1 6 C-1.042721 4.33388095 -1.04063832 2.66617115 -1 1 C-0.67 0.67 -0.34 0.34 0 0 Z " fill="#F9FDAD" transform="translate(59,48)"/>
<path d="M0 0 C2.64 0.33 5.28 0.66 8 1 C7.34 2.32 6.68 3.64 6 5 C4.35 5 2.7 5 1 5 C0.67 3.35 0.34 1.7 0 0 Z " fill="#C5E870" transform="translate(84,44)"/>
<path d="M0 0 C0.33 0.66 0.66 1.32 1 2 C0.0625 4.125 0.0625 4.125 -1 6 C-1.33 5.34 -1.66 4.68 -2 4 C-2.99 5.485 -2.99 5.485 -4 7 C-4.66 6.67 -5.32 6.34 -6 6 C-5.67 4.35 -5.34 2.7 -5 1 C-3.35 0.67 -1.7 0.34 0 0 Z " fill="#4CBEDB" transform="translate(27,32)"/>
<path d="M0 0 C0.99 0 1.98 0 3 0 C3 0.99 3 1.98 3 3 C4.65 2.67 6.3 2.34 8 2 C8.33 2.66 8.66 3.32 9 4 C6.6875 5.125 6.6875 5.125 4 6 C1 4 1 4 0.3125 1.875 C0.209375 1.25625 0.10625 0.6375 0 0 Z " fill="#D0EB69" transform="translate(26,15)"/>
<path d="M0 0 C0 0.66 0 1.32 0 2 C-2.64 2.66 -5.28 3.32 -8 4 C-8 3.01 -8 2.02 -8 1 C-2.25 -1.125 -2.25 -1.125 0 0 Z " fill="#38B8CE" transform="translate(69,92)"/>
<path d="M0 0 C0.99 0 1.98 0 3 0 C3 0.66 3 1.32 3 2 C2.34 2 1.68 2 1 2 C1.9977758 4.99332739 2.7522025 5.94766315 5 8 C1.73045798 7.43628586 0.17424117 6.50037734 -2 4 C-1.34 4 -0.68 4 0 4 C-0.33 3.01 -0.66 2.02 -1 1 C-0.67 0.67 -0.34 0.34 0 0 Z " fill="#DAEF62" transform="translate(26,82)"/>
<path d="M0 0 C0.33 0.99 0.66 1.98 1 3 C-0.75 4.5625 -0.75 4.5625 -3 6 C-5.1875 5.875 -5.1875 5.875 -7 5 C-7.33 4.01 -7.66 3.02 -8 2 C-7.34 2 -6.68 2 -6 2 C-5.67 2.66 -5.34 3.32 -5 4 C-4.34 3.34 -3.68 2.68 -3 2 C-2.01 2 -1.02 2 0 2 C0 1.34 0 0.68 0 0 Z " fill="#D9EE63" transform="translate(23,75)"/>
<path d="M0 0 C0.99 0.33 1.98 0.66 3 1 C2.67 3.64 2.34 6.28 2 9 C1.01 8.67 0.02 8.34 -1 8 C-0.34 7.67 0.32 7.34 1 7 C0.4740625 5.824375 0.4740625 5.824375 -0.0625 4.625 C-0.371875 3.75875 -0.68125 2.8925 -1 2 C-0.67 1.34 -0.34 0.68 0 0 Z " fill="#CFED79" transform="translate(68,48)"/>
<path d="M0 0 C0.5775 0.639375 1.155 1.27875 1.75 1.9375 C3.98062401 3.98223868 5.07436391 4.58205199 8 5 C6.35 5.66 4.7 6.32 3 7 C3 6.34 3 5.68 3 5 C2.01 5 1.02 5 0 5 C0 3.35 0 1.7 0 0 Z " fill="#D5ED65" transform="translate(68,82)"/>
<path d="M0 0 C0.33 0.66 0.66 1.32 1 2 C0.67 2.66 0.34 3.32 0 4 C0.99 4.33 1.98 4.66 3 5 C3.33 5.99 3.66 6.98 4 8 C1.11424181 7.60196439 0.17810487 7.20990931 -1.75 4.9375 C-2.1625 4.298125 -2.575 3.65875 -3 3 C-2.01 2.01 -1.02 1.02 0 0 Z " fill="#CDEA6B" transform="translate(74,74)"/>
<path d="M0 0 C5.75 1.75 5.75 1.75 8 4 C5.33333333 4 2.66666667 4 0 4 C0 2.68 0 1.36 0 0 Z " fill="#C8E86F" transform="translate(83,58)"/>
<path d="M0 0 C0.33 0.66 0.66 1.32 1 2 C1.66 2 2.32 2 3 2 C3.33 3.32 3.66 4.64 4 6 C1.03 5.505 1.03 5.505 -2 5 C-2 3.68 -2 2.36 -2 1 C-1.34 0.67 -0.68 0.34 0 0 Z " fill="#F6FB8A" transform="translate(46,52)"/>
<path d="M0 0 C2.64 0 5.28 0 8 0 C6.625 1.5 6.625 1.5 5 3 C4.34 3 3.68 3 3 3 C2.67 3.66 2.34 4.32 2 5 C2 4.01 2 3.02 2 2 C1.34 2 0.68 2 0 2 C0 1.34 0 0.68 0 0 Z " fill="#DCF072" transform="translate(31,43)"/>
<path d="M0 0 C3.465 1.485 3.465 1.485 7 3 C7 3.66 7 4.32 7 5 C4.36 4.67 1.72 4.34 -1 4 C-0.67 2.68 -0.34 1.36 0 0 Z " fill="#46BCC6" transform="translate(11,30)"/>
<path d="M0 0 C1.32 0.33 2.64 0.66 4 1 C4 2.32 4 3.64 4 5 C4.99 5.33 5.98 5.66 7 6 C5.68 6 4.36 6 3 6 C0 2.78571429 0 2.78571429 0 0 Z " fill="#3FBBCA" transform="translate(68,80)"/>
<path d="M0 0 C0.33 0 0.66 0 1 0 C1.05416188 1.60379341 1.09286638 3.20811406 1.125 4.8125 C1.14820312 5.70582031 1.17140625 6.59914063 1.1953125 7.51953125 C1 10 1 10 -1 13 C-2.0070238 7.96488101 -1.97387813 4.76052962 0 0 Z " fill="#C6E870" transform="translate(94,47)"/>
<path d="M0 0 C2.5 1.1875 2.5 1.1875 5 3 C5.3125 5.6875 5.3125 5.6875 5 8 C3.0625 7.375 3.0625 7.375 1 6 C0.25 2.875 0.25 2.875 0 0 Z " fill="#B6E27B" transform="translate(27,76)"/>
<path d="M0 0 C3 0 3 0 4.5625 1.4375 C5.036875 1.953125 5.51125 2.46875 6 3 C6.66 3.33 7.32 3.66 8 4 C7.01 4.66 6.02 5.32 5 6 C3.2925002 4.71937515 1.62626404 3.38232443 0 2 C0 1.34 0 0.68 0 0 Z " fill="#37B8CF" transform="translate(79,70)"/>
<path d="M0 0 C0 0.99 0 1.98 0 3 C0.99 3 1.98 3 3 3 C2.67 3.66 2.34 4.32 2 5 C-0.64 4.67 -3.28 4.34 -6 4 C-2.25 0 -2.25 0 0 0 Z " fill="#CAEB9A" transform="translate(56,37)"/>
<path d="M0 0 C0 3 0 3 -1.875 5.1875 C-4 7 -4 7 -6 7 C-4.77065985 3.31197956 -3.06140622 2.27643027 0 0 Z " fill="#27B3D8" transform="translate(16,18)"/>
<path d="M0 0 C0.99 0 1.98 0 3 0 C3.33 0.99 3.66 1.98 4 3 C-0.625 5.125 -0.625 5.125 -4 4 C-2.68 3.67 -1.36 3.34 0 3 C0 2.01 0 1.02 0 0 Z " fill="#A6DD85" transform="translate(68,87)"/>
<path d="M0 0 C0.90786761 3.29102008 1.59440475 5.81119049 0 9 C-0.99 8.34 -1.98 7.68 -3 7 C-3 6.01 -3 5.02 -3 4 C-2.34 3.67 -1.68 3.34 -1 3 C-0.67 2.01 -0.34 1.02 0 0 Z " fill="#4BBEC2" transform="translate(30,80)"/>
<path d="M0 0 C1.32 0.33 2.64 0.66 4 1 C4 2.32 4 3.64 4 5 C3.01 4.67 2.02 4.34 1 4 C0.3125 1.9375 0.3125 1.9375 0 0 Z " fill="#5DC3E8" transform="translate(21,63)"/>
<path d="M0 0 C1.32 0.66 2.64 1.32 4 2 C4 2.66 4 3.32 4 4 C3.01 4 2.02 4 1 4 C0.34 4.66 -0.32 5.32 -1 6 C-1.33 5.01 -1.66 4.02 -2 3 C-1.34 2.01 -0.68 1.02 0 0 Z " fill="#80CFED" transform="translate(76,62)"/>
<path d="M0 0 C0.66 0 1.32 0 2 0 C2 1.65 2 3.3 2 5 C-0.31 4.67 -2.62 4.34 -5 4 C-5 3.34 -5 2.68 -5 2 C-3.68 2 -2.36 2 -1 2 C-0.67 1.34 -0.34 0.68 0 0 Z " fill="#D0EB69" transform="translate(14,54)"/>
<path d="M0 0 C0.66 0 1.32 0 2 0 C1.67 1.32 1.34 2.64 1 4 C-0.98 4.33 -2.96 4.66 -5 5 C-4.67 4.01 -4.34 3.02 -4 2 C-2.68 2 -1.36 2 0 2 C0 1.34 0 0.68 0 0 Z " fill="#4ABEC2" transform="translate(90,37)"/>
<path d="M0 0 C0.66 0.99 1.32 1.98 2 3 C1.360625 3.103125 0.72125 3.20625 0.0625 3.3125 C-0.618125 3.539375 -1.29875 3.76625 -2 4 C-2.33 4.99 -2.66 5.98 -3 7 C-3.66 6.34 -4.32 5.68 -5 5 C-3.35 3.35 -1.7 1.7 0 0 Z " fill="#D7EE64" transform="translate(79,19)"/>
<path d="M0 0 C1.32 0.33 2.64 0.66 4 1 C4 1.99 4 2.98 4 4 C5.32 4.33 6.64 4.66 8 5 C7.01 5.33 6.02 5.66 5 6 C3.31237149 4.3545622 1.6459651 2.68711423 0 1 C0 0.67 0 0.34 0 0 Z " fill="#DDF060" transform="translate(22,17)"/>
</svg>
